<?xml version="1.0" encoding="UTF-8"?>
<svg width="24px" height="24px" viewBox="0 0 24 24" version="1.1" xmlns="http://www.w3.org/2000/svg">
    <g stroke="none" stroke-width="1" fill="none" fill-rule="evenodd">
        <path d="M17.5,12.5 C17.5,10.5 18.5,9 20,8 C19,7 17.5,6.5 16,6.5 C14,6.5 13,7.5 12,7.5 C11,7.5 9.5,6.5 8,6.5 C5.5,6.5 3,8 3,12 C3,16 6,19 9.5,19 C11,19 12.5,18 13.5,17 C14.5,18 16,19 17.5,19 C21,19 22,16 22,14 C22,13 21.5,12.5 21,12 C19.5,12.5 17.5,12.5 17.5,12.5 Z" fill="#000000"></path>
        <path d="M15,4 C16,5 16,6 15.5,7 C14.5,7 13.5,6 13.5,5 C13.5,4 14,4 15,4 Z" fill="#000000"></path>
    </g>
</svg> 