<?xml version="1.0" encoding="UTF-8"?>
<svg width="24px" height="24px" viewBox="0 0 24 24" version="1.1" xmlns="http://www.w3.org/2000/svg">
    <g stroke="none" stroke-width="1" fill="none" fill-rule="evenodd">
        <path d="M12,2 C6.477,2 2,6.477 2,12 C2,16.418 4.865,20.166 8.839,21.489 C9.339,21.581 9.521,21.277 9.521,21.012 C9.521,20.777 9.512,20.025 9.508,19.096 C6.726,19.741 6.139,17.544 6.139,17.544 C5.685,16.325 5.029,16.012 5.029,16.012 C4.121,15.363 5.097,15.375 5.097,15.375 C6.101,15.446 6.629,16.401 6.629,16.401 C7.521,17.993 8.97,17.578 9.539,17.321 C9.631,16.598 9.889,16.108 10.175,15.852 C7.954,15.583 5.62,14.822 5.62,10.719 C5.62,9.509 6.01,8.5 6.649,7.793 C6.546,7.544 6.203,6.524 6.747,5.329 C6.747,5.329 7.586,5.072 9.497,6.503 C10.325,6.271 11.212,6.155 12.099,6.151 C12.986,6.155 13.873,6.271 14.701,6.503 C16.612,5.072 17.451,5.329 17.451,5.329 C17.995,6.524 17.652,7.544 17.549,7.793 C18.188,8.5 18.578,9.509 18.578,10.719 C18.578,14.832 16.243,15.581 14.022,15.846 C14.337,16.136 14.621,16.726 14.621,17.625 C14.621,18.89 14.613,19.905 14.613,21.012 C14.613,21.277 14.795,21.583 15.295,21.489 C19.135,20.166 22,16.418 22,12 C22,6.477 17.523,2 12,2 Z" fill="#000000"></path>
    </g>
</svg> 