<?xml version="1.0" encoding="UTF-8"?>
<svg width="18px" height="18px" viewBox="0 0 18 18" version="1.1" xmlns="http://www.w3.org/2000/svg" xmlns:xlink="http://www.w3.org/1999/xlink">
    <g stroke="none" stroke-width="1" fill="none" fill-rule="evenodd">
        <path d="M15.92,4.5 C15.92,4.7 15.92,4.9 15.92,5.1 C15.92,9.3 12.26,14.1 5.58,14.1 C3.5,14.1 1.56,13.5 0,12.3 C0.24,12.34 0.48,12.36 0.74,12.36 C2.2,12.36 3.52,11.82 4.56,10.92 C3.18,10.88 2.06,9.9 1.66,8.62 C2,8.68 2.34,8.72 2.7,8.72 C3.12,8.72 3.52,8.66 3.9,8.56 C1.64,8.16 0,6.12 0,3.72 C0,3.7 0,3.68 0,3.66 C0.48,3.94 1.04,4.12 1.64,4.14 C0.96,3.7 0.52,2.9 0.52,2 C0.52,1.54 0.66,1.12 0.88,0.76 C2.42,2.12 4.4,3 6.58,3.1 C6.52,2.86 6.5,2.6 6.5,2.34 C6.5,1.14 7.5,0.14 8.7,0.14 C9.3,0.14 9.84,0.36 10.24,0.72 C10.76,0.6 11.24,0.38 11.66,0.08 C11.5,0.64 11.14,1.12 10.66,1.42 C11.12,1.36 11.56,1.24 11.96,1.06 C11.66,1.56 11.24,1.98 10.76,2.28 C10.76,3.44 11.26,4.48 12,5.14 C12,5.16 12,5.18 12,5.2 C12,7.78 10.4,9.96 8.1,10.4 C7.64,10.52 7.16,10.58 6.66,10.58 C6.32,10.58 5.98,10.54 5.66,10.48 C6.34,12.64 8.28,14.2 10.52,14.26 C8.8,15.72 6.6,16.6 4.2,16.6 C3.88,16.6 3.56,16.58 3.24,16.54 C5.5,18.08 8.14,18.9 10.94,18.9 C15.9,18.9 18.9,14.26 18.9,10.2 C18.9,10.08 18.9,9.96 18.9,9.84 C19.76,9.24 20.5,8.48 21.08,7.62" fill="#000000"></path>
    </g>
</svg> 