<?xml version="1.0" encoding="UTF-8"?>
<svg version="1.1" xmlns="http://www.w3.org/2000/svg" width="1120" height="1120">
<path d="M0 0 C369.6 0 739.2 0 1120 0 C1120 369.6 1120 739.2 1120 1120 C750.4 1120 380.8 1120 0 1120 C0 750.4 0 380.8 0 0 Z " fill="#EAEAEA" transform="translate(0,0)"/>
<path d="M0 0 C9.25082742 7.10140539 15.83928693 15.33968825 21.1875 25.625 C21.5086377 26.22707275 21.82977539 26.82914551 22.16064453 27.44946289 C30.01500192 43.2616847 29.61250063 59.52586202 29.60750484 76.77169108 C29.61066777 80.37518177 29.63635492 83.97851657 29.65948486 87.58192444 C29.69979289 94.38128874 29.7203257 101.18055776 29.73345876 107.98002297 C29.74941503 115.7312149 29.78786609 123.48224665 29.82805204 131.23334491 C29.91010541 147.15551544 29.96441243 163.07765361 30 179 C30.93303955 178.52296631 31.8660791 178.04593262 32.82739258 177.55444336 C34.07883888 176.92021295 35.33039077 176.28619087 36.58203125 175.65234375 C37.19373169 175.33890015 37.80543213 175.02545654 38.43566895 174.70251465 C54.19774586 166.74602221 71.45840888 165.39883935 88.31640625 170.625 C101.50217623 175.54694171 111.21776813 181.878009 121 192 C121.91845703 192.87205078 121.91845703 192.87205078 122.85546875 193.76171875 C131.19477818 202.27988737 135.88070255 215.56279972 138 227 C138.17209545 227.76736888 138.3441909 228.53473776 138.52150136 229.32536024 C139.01084023 232.06059311 139.12650387 234.56811464 139.12863445 237.34501743 C139.1318589 238.41000794 139.13508335 239.47499845 139.1384055 240.57226139 C139.1368569 241.73625098 139.1353083 242.90024057 139.13371277 244.09950256 C139.13597833 245.34079137 139.13824388 246.58208017 139.14057809 247.86098379 C139.1458149 251.30401697 139.14656269 254.74699795 139.14538372 258.19003141 C139.14517966 261.90459465 139.15069908 265.6191501 139.15544128 269.33370972 C139.16374833 276.61157253 139.16649618 283.88942724 139.16705366 291.16729439 C139.16752896 297.08574278 139.16958439 303.00418849 139.17275429 308.92263603 C139.18156232 325.71025485 139.18617363 342.49786728 139.18542381 359.28548843 C139.18536388 360.64306936 139.18536388 360.64306936 139.18530273 362.02807617 C139.18526185 362.93423844 139.18522097 363.84040072 139.18517885 364.77402245 C139.18477272 379.44785716 139.19433367 394.12166616 139.2084411 408.79549343 C139.22281913 423.87007692 139.22971045 438.94464789 139.22884732 454.01923841 C139.22851577 462.47927303 139.23124459 470.93928073 139.24202538 479.39930916 C139.25114933 486.60532997 139.25329023 493.81131168 139.24651595 501.01733578 C139.24325981 504.69069288 139.24316104 508.36397502 139.2518692 512.03732491 C139.26123372 516.02881011 139.25493425 520.02012317 139.24723816 524.01161194 C139.25238172 525.15998647 139.25752529 526.30836101 139.26282471 527.49153477 C139.2194573 537.70671326 138.23244821 547.63666969 133.9375 557 C133.63585937 557.671521 133.33421875 558.34304199 133.0234375 559.03491211 C129.88186955 565.7258477 125.81084001 571.37873174 121 577 C120.42507813 577.67546875 119.85015625 578.3509375 119.2578125 579.046875 C109.94137288 589.12111115 97.85337943 593.34100878 85 597 C84.34 597 83.68 597 83 597 C83 597.66 83 598.32 83 599 C67.05829179 600.39773271 51.5067916 599.81134932 37 592 C37 591.34 37 590.68 37 590 C35.9275 589.71125 34.855 589.4225 33.75 589.125 C28.72992371 587.61897711 26.08364627 586.55860734 23.125 582.1875 C21.175608 579.45443282 19.65109244 577.71651261 17 575.5625 C5.42981409 565.67963286 1.23861105 548.59459962 0 534 C-0.34843814 525.88989557 -0.20910803 517.76355577 -0.16015625 509.6484375 C-0.15387624 507.2976608 -0.14863935 504.94688111 -0.14439392 502.59609985 C-0.13116872 496.44556709 -0.10675983 490.29513599 -0.07904053 484.14465332 C-0.03569651 474.26637515 -0.00623027 464.38806744 0.0170002 454.50972366 C0.0272282 451.06238379 0.04426775 447.61512458 0.06199646 444.16781616 C0.0688208 442.06679353 0.07542961 439.96577019 0.08178711 437.86474609 C0.08852448 436.90477722 0.09526184 435.94480835 0.10220337 434.95574951 C0.10447685 433.63989365 0.10447685 433.63989365 0.10679626 432.29745483 C0.11031569 431.5354244 0.11383512 430.77339397 0.1174612 429.98827171 C0.07389169 427.78879252 0.07389169 427.78879252 -1 425 C-1.49628906 425.39832031 -1.99257813 425.79664063 -2.50390625 426.20703125 C-6.86325863 429.60682979 -10.83575375 432.03758643 -16 434 C-16.66 434.33 -17.32 434.66 -18 435 C-20.34723966 435.397493 -22.70328548 435.74368723 -25.0625 436.0625 C-26.33222656 436.23910156 -27.60195313 436.41570312 -28.91015625 436.59765625 C-33.25452659 437.02503939 -37.63465809 437 -42 437 C-42 514.88 -42 592.76 -42 673 C-43.65 672.67 -45.3 672.34 -47 672 C-47.13102967 644.99935905 -47.26144751 617.99871521 -47.39115143 590.99806786 C-47.45139903 578.45915972 -47.51184137 565.92025258 -47.57275391 553.38134766 C-47.6258897 542.44318949 -47.67864813 531.50502958 -47.73096704 520.56686747 C-47.75864191 514.78364531 -47.78649646 509.00042415 -47.81480408 503.21720505 C-47.841531 497.75569622 -47.86774716 492.29418516 -47.89359856 486.83267212 C-47.9030894 484.84556618 -47.91275495 482.85846106 -47.92262459 480.87135696 C-47.99015148 467.24747556 -48.01185596 453.62404585 -48 440 C-51.48645007 438.80719659 -54.63281356 437.77718919 -58.3125 437.5 C-62.98091165 437.06332884 -67.44940913 436.1080635 -72 435 C-72 434.34 -72 433.68 -72 433 C-72.86625 432.731875 -73.7325 432.46375 -74.625 432.1875 C-77.91791964 431.02888013 -80.91127875 429.61790161 -84 428 C-84 427.34 -84 426.68 -84 426 C-85.65 425.34 -87.3 424.68 -89 424 C-88.99476318 424.83055908 -88.98952637 425.66111816 -88.98413086 426.5168457 C-88.86682539 448.77073359 -89.004862 471.02473035 -89.26345825 493.27719116 C-89.29733502 496.2350363 -89.32467255 499.19282688 -89.34616089 502.15078735 C-89.56574066 531.25208507 -90.50769851 557.07068554 -111.40234375 579.578125 C-116.16750881 584.02083528 -121.53327573 587.47440869 -127 591 C-129.99128405 592.94869455 -132.74268364 594.75769376 -135.34375 597.20703125 C-139.03569684 599.69909537 -142.13724581 599.63098764 -146.5 599.6875 C-147.98967555 599.72995189 -149.47926794 599.7754481 -150.96875 599.82421875 C-152.01748291 599.85515625 -152.01748291 599.85515625 -153.08740234 599.88671875 C-155.4475259 600.02650651 -157.68934949 600.51550876 -160 601 C-162.34260643 600.7397104 -164.67724823 600.40047444 -167 600 C-168.19625 599.835 -169.3925 599.67 -170.625 599.5 C-189.41529191 596.71625305 -206.52121026 584.91688135 -218 570 C-218 569.34 -218 568.68 -218 568 C-218.66 568 -219.32 568 -220 568 C-220 566.35 -220 564.7 -220 563 C-220.66 563 -221.32 563 -222 563 C-222 562.01 -222 561.02 -222 560 C-222.66 560 -223.32 560 -224 560 C-227.32445643 553.93775593 -228.36108506 546.86061613 -228 540 C-228.66 540 -229.32 540 -230 540 C-230.33 449.25 -230.66 358.5 -231 265 C-231.66 265.99 -232.32 266.98 -233 268 C-233.99 266.68 -234.98 265.36 -236 264 C-237.65 264.66 -239.3 265.32 -241 266 C-242.35714063 262.33572029 -241.52286834 260.49363912 -240 257 C-240 256.01 -240 255.02 -240 254 C-239.45068194 252.56117705 -238.83892685 251.14556614 -238.1875 249.75 C-236.84560633 246.85831364 -235.5915254 243.97100157 -234.4375 241 C-233.963125 240.01 -233.48875 239.02 -233 238 C-232.01 237.67 -231.02 237.34 -230 237 C-229.20315981 234.53676397 -228.59811081 232.20862898 -228.0625 229.6875 C-227.71932483 228.21670255 -227.37294063 226.74665036 -227.0234375 225.27734375 C-226.76578613 224.18462158 -226.76578613 224.18462158 -226.50292969 223.06982422 C-222.01882011 204.61531887 -211.62518285 188.8896468 -196 178 C-189.01488429 173.86134153 -181.86053882 170.97937481 -174 169 C-173.41742432 168.82799072 -172.83484863 168.65598145 -172.23461914 168.47875977 C-167.24962036 167.41074025 -162.0140501 167.77172948 -156.9375 167.75 C-155.17116211 167.7190625 -155.17116211 167.7190625 -153.36914062 167.6875 C-141.71357889 167.63589818 -129.53943323 169.57485835 -120.87670898 178.08618164 C-120.25739502 178.7177417 -119.63808105 179.34930176 -119 180 C-119.00580078 178.72181396 -119.01160156 177.44362793 -119.01757812 176.12670898 C-119.06781677 159.48622069 -118.81982242 142.85359421 -118.53643799 126.21630859 C-118.47471711 122.56805686 -118.41520172 118.9197691 -118.35546875 115.27148438 C-118.23906718 108.18095409 -118.12033394 101.09046474 -118 94 C-120.51083114 95.25541557 -120.87125446 96.50063488 -122 99 C-123.3271261 95.0186217 -123.06915913 91.14954773 -123 87 C-124.98 86.505 -124.98 86.505 -127 86 C-123.38939689 71.76884625 -123.38939689 71.76884625 -120.9375 65.3125 C-118.33781307 58.43395092 -116.726356 51.35425718 -115.171875 44.17578125 C-110.892926 25.00208111 -101.02007502 7.88195944 -84.25146484 -3.15039062 C-79.97842298 -5.74949252 -75.55677913 -7.94655287 -71 -10 C-70.00871094 -10.45632812 -69.01742187 -10.91265625 -67.99609375 -11.3828125 C-45.33083871 -20.01432108 -19.05521617 -13.52044304 0 0 Z " fill="#93B95C" transform="translate(605,264)"/>
<path d="M0 0 C1.17755859 -0.020625 2.35511719 -0.04125 3.56835938 -0.0625 C15.86395105 -0.11693538 26.96362921 2.29669566 36.5 10.4375 C37.9375 12.25 37.9375 12.25 37.9375 14.25 C39.2575 14.91 40.5775 15.57 41.9375 16.25 C41.94246522 17.72874414 41.94246522 17.72874414 41.94753075 19.23736191 C42.02846465 43.20623452 42.12076162 67.17504274 42.22502708 91.14382553 C42.27518466 102.73486761 42.32162722 114.3259025 42.359375 125.91699219 C42.39227889 136.01780639 42.43210122 146.11856535 42.48029006 156.21931863 C42.50557097 161.56936426 42.52734757 166.91937317 42.54084396 172.26946259 C42.55364983 177.30253745 42.57568833 182.33548646 42.60488319 187.36849213 C42.61397051 189.21801393 42.61965188 191.06755602 42.62171364 192.917099 C42.62502803 195.43818293 42.64048303 197.95890829 42.6590271 200.47991943 C42.656125 201.58303549 42.656125 201.58303549 42.65316427 202.70843673 C42.69418435 206.42706819 43.00637799 209.05318766 44.9375 212.25 C45.03068455 213.66421257 45.06745549 215.08272938 45.0625 216.5 C45.48005358 221.78638587 47.39349976 225.89635267 49.75 230.5625 C50.26554443 231.5848877 50.26554443 231.5848877 50.79150391 232.62792969 C53.18166394 237.18841336 55.5776135 241.58462586 59.87303734 244.61591053 C63.09360082 246.96820472 65.5228162 248.83764077 66.67239761 252.75296593 C66.93542912 255.78756194 66.95044527 258.73279055 66.87744141 261.77807617 C66.8840126 263.49170853 66.8840126 263.49170853 66.89071655 265.23995972 C66.89533143 269.00881636 66.84285943 272.77452962 66.7890625 276.54296875 C66.77920845 279.17221588 66.77261475 281.80147707 66.76913452 284.43074036 C66.75625704 289.94130249 66.71385569 295.45097402 66.65087891 300.96118164 C66.5705195 308.00087679 66.53552393 315.03999041 66.51626015 322.08008862 C66.49776701 328.81780796 66.45653191 335.55536185 66.4140625 342.29296875 C66.40387526 344.20560548 66.40387526 344.20560548 66.39348221 346.15688133 C66.37012822 349.79642895 66.33305261 353.43557087 66.29150391 357.07495117 C66.2861261 358.13354843 66.28074829 359.19214569 66.27520752 360.28282166 C65.98898637 380.4367388 59.3000196 397.00079364 45.53515625 411.828125 C40.76999119 416.27083528 35.40422427 419.72440869 29.9375 423.25 C26.94621595 425.19869455 24.19481636 427.00769376 21.59375 429.45703125 C17.90180316 431.94909537 14.80025419 431.88098764 10.4375 431.9375 C8.94782445 431.97995189 7.45823206 432.0254481 5.96875 432.07421875 C4.92001709 432.10515625 4.92001709 432.10515625 3.85009766 432.13671875 C1.4899741 432.27650651 -0.75184949 432.76550876 -3.0625 433.25 C-5.40510643 432.9897104 -7.73974823 432.65047444 -10.0625 432.25 C-11.25875 432.085 -12.455 431.92 -13.6875 431.75 C-32.47779191 428.96625305 -49.58371026 417.16688135 -61.0625 402.25 C-61.0625 401.59 -61.0625 400.93 -61.0625 400.25 C-61.7225 400.25 -62.3825 400.25 -63.0625 400.25 C-63.0625 398.6 -63.0625 396.95 -63.0625 395.25 C-63.7225 395.25 -64.3825 395.25 -65.0625 395.25 C-65.0625 394.26 -65.0625 393.27 -65.0625 392.25 C-65.7225 392.25 -66.3825 392.25 -67.0625 392.25 C-70.38695643 386.18775593 -71.42358506 379.11061613 -71.0625 372.25 C-71.7225 372.25 -72.3825 372.25 -73.0625 372.25 C-73.3925 281.5 -73.7225 190.75 -74.0625 97.25 C-74.7225 98.24 -75.3825 99.23 -76.0625 100.25 C-77.0525 98.93 -78.0425 97.61 -79.0625 96.25 C-81.5375 97.24 -81.5375 97.24 -84.0625 98.25 C-85.41964063 94.58572029 -84.58536834 92.74363912 -83.0625 89.25 C-83.0625 88.26 -83.0625 87.27 -83.0625 86.25 C-82.51318194 84.81117705 -81.90142685 83.39556614 -81.25 82 C-79.90810633 79.10831364 -78.6540254 76.22100157 -77.5 73.25 C-77.025625 72.26 -76.55125 71.27 -76.0625 70.25 C-74.5775 69.755 -74.5775 69.755 -73.0625 69.25 C-72.26565981 66.78676397 -71.66061081 64.45862898 -71.125 61.9375 C-70.78182483 60.46670255 -70.43544063 58.99665036 -70.0859375 57.52734375 C-69.82828613 56.43462158 -69.82828613 56.43462158 -69.56542969 55.31982422 C-65.08132011 36.86531887 -54.68768285 21.1396468 -39.0625 10.25 C-32.07738429 6.11134153 -24.92303882 3.22937481 -17.0625 1.25 C-16.47992432 1.07799072 -15.89734863 0.90598145 -15.29711914 0.72875977 C-10.31212036 -0.33925975 -5.0765501 0.02172948 0 0 Z " fill="#5C9E69" transform="translate(448.0625,431.75)"/>
<path d="M0 0 C5.61457436 3.6834924 10.27273159 8.45172398 14.91796875 13.25830078 C15.53027344 13.83966797 16.14257812 14.42103516 16.7734375 15.02001953 C25.11274693 23.53818815 29.7986713 36.8211005 31.91796875 48.25830078 C32.0900642 49.02566966 32.26215965 49.79303854 32.43947011 50.58366102 C32.92880898 53.31889389 33.04447262 55.82641542 33.0466032 58.60331821 C33.04982765 59.66830872 33.0530521 60.73329923 33.05637425 61.83056217 C33.05405135 63.57654655 33.05405135 63.57654655 33.05168152 65.35780334 C33.05394708 66.59909215 33.05621263 67.84038095 33.05854684 69.11928457 C33.06378365 72.56231775 33.06453144 76.00529873 33.06335247 79.44833219 C33.06314841 83.16289543 33.06866783 86.87745088 33.07341003 90.5920105 C33.08171708 97.86987331 33.08446493 105.14772802 33.08502241 112.42559517 C33.08549771 118.34404356 33.08755314 124.26248927 33.09072304 130.18093681 C33.09953107 146.96855564 33.10414238 163.75616807 33.10339256 180.54378922 C33.10335261 181.44884317 33.10331265 182.35389712 33.10327148 183.28637695 C33.1032306 184.19253923 33.10318972 185.0987015 33.1031476 186.03232323 C33.10274147 200.70615794 33.11230242 215.37996694 33.12640985 230.05379421 C33.14078788 245.1283777 33.1476792 260.20294867 33.14681607 275.27753919 C33.14648452 283.73757381 33.14921334 292.19758151 33.15999413 300.65760994 C33.16911808 307.86363075 33.17125898 315.06961246 33.1644847 322.27563656 C33.16122856 325.94899366 33.16112979 329.6222758 33.16983795 333.29562569 C33.17920247 337.28711089 33.172903 341.27842395 33.16520691 345.26991272 C33.17035047 346.41828725 33.17549404 347.56666179 33.18079346 348.74983555 C33.13742605 358.96501404 32.15041696 368.89497047 27.85546875 378.25830078 C27.55382812 378.92982178 27.2521875 379.60134277 26.94140625 380.29321289 C23.7998383 386.98414848 19.72880876 392.63703252 14.91796875 398.25830078 C14.05558594 399.27150391 14.05558594 399.27150391 13.17578125 400.30517578 C3.85934163 410.37941193 -8.22865182 414.59930956 -21.08203125 418.25830078 C-21.74203125 418.25830078 -22.40203125 418.25830078 -23.08203125 418.25830078 C-23.08203125 418.91830078 -23.08203125 419.57830078 -23.08203125 420.25830078 C-39.02373946 421.65603349 -54.57523965 421.06965011 -69.08203125 413.25830078 C-69.08203125 412.59830078 -69.08203125 411.93830078 -69.08203125 411.25830078 C-70.69078125 410.82517578 -70.69078125 410.82517578 -72.33203125 410.38330078 C-77.35210754 408.8772779 -79.99838498 407.81690812 -82.95703125 403.44580078 C-84.90642325 400.7127336 -86.43093881 398.97481339 -89.08203125 396.82080078 C-95.75904295 391.11751996 -99.32149237 383.46463 -102.08203125 375.25830078 C-102.42147263 374.3019574 -102.760914 373.34561401 -103.11064148 372.36029053 C-104.61167349 367.02450428 -104.43473785 361.57604807 -104.48364258 356.07177734 C-104.50160385 354.85947449 -104.51956512 353.64717163 -104.53807068 352.39813232 C-104.59266161 348.39842231 -104.6312012 344.39885767 -104.6640625 340.39892578 C-104.67298165 339.37435666 -104.67298165 339.37435666 -104.68208098 338.32908916 C-104.73797614 331.8755338 -104.78660028 325.42196843 -104.81622791 318.96823502 C-104.85434975 310.74653819 -104.92950178 302.52708086 -105.05606633 294.30625558 C-105.14228807 288.50642286 -105.18582808 282.70718885 -105.19834536 276.90673423 C-105.20691382 273.45078539 -105.23356762 269.99730715 -105.3061924 266.54206085 C-105.78281573 242.75585532 -105.78281573 242.75585532 -100.25570965 236.66985703 C-98.01254565 234.66085223 -95.53912336 232.99442237 -93.08203125 231.25830078 C-80.40914891 215.04895003 -77.61722864 196.9521857 -77.77661133 177.07495117 C-77.78069865 175.16013838 -77.7833443 173.24532206 -77.78466797 171.33050537 C-77.78985718 167.22998911 -77.80375482 163.12962972 -77.82416725 159.02916145 C-77.85498593 152.54523556 -77.85748591 146.06148687 -77.85466003 139.57749939 C-77.85035199 121.14798096 -77.87398208 102.71868418 -77.94799805 84.28930664 C-77.98870588 74.09347746 -78.00099181 63.89802239 -77.98176116 53.70212549 C-77.97119384 47.25518964 -77.99578364 40.80964532 -78.04613364 34.3629123 C-78.06899218 30.35926963 -78.05850235 26.3562361 -78.038414 22.3526001 C-78.03578305 20.4953783 -78.04689015 18.63807912 -78.0726757 16.78103447 C-78.25662303 2.74745289 -78.25662303 2.74745289 -75.36379051 -0.92009163 C-73.26413693 -2.27871038 -71.47522413 -3.04867955 -69.08203125 -3.74169922 C-67.30119141 -4.49 -67.30119141 -4.49 -65.484375 -5.25341797 C-64.34097656 -5.64142578 -63.19757812 -6.02943359 -62.01953125 -6.42919922 C-60.87355469 -6.82494141 -59.72757813 -7.22068359 -58.546875 -7.62841797 C-57.40347656 -7.99580078 -56.26007812 -8.36318359 -55.08203125 -8.74169922 C-53.96957031 -9.11166016 -52.85710938 -9.48162109 -51.7109375 -9.86279297 C-34.01776938 -14.14800591 -15.35278208 -9.03623077 0 0 Z " fill="#22958C" transform="translate(711.08203125,442.74169921875)"/>
<path d="M0 0 C0.33 0 0.66 0 1 0 C2.0306666 27.3347244 2.20878156 54.65873478 2.30331039 82.01038384 C2.32574972 88.25076517 2.35300262 94.49112599 2.3795166 100.73149109 C2.42949988 112.69509209 2.47458746 124.65870663 2.51765215 136.62233394 C2.55223454 146.21598297 2.58887339 155.80962244 2.62667847 165.40325928 C2.9433003 245.93550776 3.16201659 326.46710051 3 407 C1.68 407 0.36 407 -1 407 C-1.03024399 367.48149423 -1.05062851 327.96298801 -1.06185675 288.44447255 C-1.06249804 286.19439331 -1.06315687 283.94431408 -1.06381607 281.69423485 C-1.08538722 206.87834903 -1.08440619 132.06414968 -0.5 57.25 C-0.49402628 56.48216423 -0.48805257 55.71432845 -0.48189783 54.92322493 C-0.33913451 36.61531684 -0.18141612 18.30756981 0 0 Z " fill="#286D55" transform="translate(560,530)"/>
<path d="M0 0 C1.17755859 -0.020625 2.35511719 -0.04125 3.56835938 -0.0625 C12.95503133 -0.10405693 21.83218663 0.96845948 30.0625 5.8125 C31.14917969 6.43318359 31.14917969 6.43318359 32.2578125 7.06640625 C33.9375 8.25 33.9375 8.25 34.9375 10.25 C29.94773487 8.76655631 25.39080069 6.63327921 20.71875 4.37109375 C8.60495759 -0.51185347 -10.88132628 0.64629381 -22.87890625 5.35546875 C-25.65163315 6.58150446 -28.35629201 7.88368579 -31.0625 9.25 C-31.94905273 9.62463379 -31.94905273 9.62463379 -32.85351562 10.00683594 C-39.07122109 12.77060293 -43.44548085 16.94173901 -48.1875 21.75 C-48.98357666 22.55228027 -49.77965332 23.35456055 -50.59985352 24.18115234 C-56.31177165 30.10378761 -60.29915596 35.43058105 -63.0625 43.25 C-63.52076172 44.31734375 -63.52076172 44.31734375 -63.98828125 45.40625 C-68.08335226 55.18784142 -68.45097032 65.46291987 -68.6875 75.9296875 C-68.7257643 77.37417777 -68.76409616 78.81866625 -68.80249023 80.26315308 C-69.24109052 97.96423948 -69.13598344 115.6702448 -69.0625 133.375 C-69.03865939 139.23572266 -69.01848877 145.09642017 -69.00656128 150.95718002 C-69.00016476 153.26097171 -68.98769286 155.56467534 -68.97485352 157.86843872 C-68.97122267 159.27703785 -68.96787073 160.68563773 -68.96484375 162.09423828 C-68.95698853 163.92017014 -68.95698853 163.92017014 -68.94897461 165.7829895 C-69.06543266 169.33956211 -69.54611478 172.73193656 -70.0625 176.25 C-70.13762514 178.13501492 -70.17080936 180.02221015 -70.16015625 181.90869141 C-70.15685303 182.97576324 -70.1535498 184.04283508 -70.15014648 185.14224243 C-70.14184814 186.28381805 -70.1335498 187.42539368 -70.125 188.6015625 C-70.12121338 189.81024994 -70.11742676 191.01893738 -70.11352539 192.26425171 C-70.09737165 197.39838033 -70.06976183 202.53242677 -70.04199219 207.66650391 C-69.97699022 220.8362437 -69.99445632 233.96982059 -70.55859375 247.12890625 C-71.49680315 269.99132155 -71.17236265 292.89308265 -71.13116455 315.76953125 C-71.12078978 322.15299139 -71.11633712 328.53645567 -71.11132812 334.91992188 C-71.10072037 347.36329191 -71.08373629 359.80664387 -71.0625 372.25 C-71.7225 372.25 -72.3825 372.25 -73.0625 372.25 C-73.3925 281.5 -73.7225 190.75 -74.0625 97.25 C-74.7225 98.24 -75.3825 99.23 -76.0625 100.25 C-77.0525 98.93 -78.0425 97.61 -79.0625 96.25 C-81.5375 97.24 -81.5375 97.24 -84.0625 98.25 C-85.41964063 94.58572029 -84.58536834 92.74363912 -83.0625 89.25 C-83.0625 88.26 -83.0625 87.27 -83.0625 86.25 C-82.51318194 84.81117705 -81.90142685 83.39556614 -81.25 82 C-79.90810633 79.10831364 -78.6540254 76.22100157 -77.5 73.25 C-77.025625 72.26 -76.55125 71.27 -76.0625 70.25 C-74.5775 69.755 -74.5775 69.755 -73.0625 69.25 C-72.26565981 66.78676397 -71.66061081 64.45862898 -71.125 61.9375 C-70.78182483 60.46670255 -70.43544063 58.99665036 -70.0859375 57.52734375 C-69.82828613 56.43462158 -69.82828613 56.43462158 -69.56542969 55.31982422 C-65.08132011 36.86531887 -54.68768285 21.1396468 -39.0625 10.25 C-32.07738429 6.11134153 -24.92303882 3.22937481 -17.0625 1.25 C-16.47992432 1.07799072 -15.89734863 0.90598145 -15.29711914 0.72875977 C-10.31212036 -0.33925975 -5.0765501 0.02172948 0 0 Z " fill="#93B172" transform="translate(448.0625,431.75)"/>
<path d="M0 0 C0.66 0 1.32 0 2 0 C2 63.36 2 126.72 2 192 C1.67 192 1.34 192 1 192 C0.99576806 192.56024872 0.99153612 193.12049744 0.98717594 193.69772339 C0.88300728 207.45072772 0.77420679 221.20368905 0.66066074 234.95661926 C0.60582788 241.60794623 0.5525417 248.25927781 0.50268555 254.91064453 C0.45436795 261.3492551 0.40201705 267.7878222 0.34705925 274.22637939 C0.3269359 276.66268813 0.30818033 279.09900862 0.29092598 281.53533936 C0.17757669 297.37719375 -0.23567497 313.17582623 -1 329 C-5.62 328.67 -10.24 328.34 -15 328 C-15 327.67 -15 327.34 -15 327 C-11.37 326.67 -7.74 326.34 -4 326 C-3.21893963 322.09469817 -2.87782452 319.12005224 -2.88647461 315.21595764 C-2.8865451 314.05974915 -2.8866156 312.90354065 -2.88668823 311.71229553 C-2.89443771 309.82262306 -2.89443771 309.82262306 -2.90234375 307.89477539 C-2.90426421 306.54731298 -2.90572741 305.19984985 -2.9067688 303.85238647 C-2.90992603 300.95392086 -2.91618957 298.05548449 -2.92483521 295.15703011 C-2.93839739 290.56151171 -2.94426113 285.96600295 -2.94897461 281.37046814 C-2.96100921 270.77406935 -2.98298178 260.17769557 -3.00520325 249.58131409 C-3.02544564 239.89070136 -3.04351521 230.20009755 -3.05341816 220.50946802 C-3.05836116 215.95472588 -3.06816271 211.40002945 -3.08184814 206.84530556 C-3.08938978 203.99081836 -3.09263976 201.13633712 -3.0948143 198.28184128 C-3.09753299 196.35704008 -3.10530246 194.432248 -3.11331177 192.50746155 C-3.11373358 185.43746468 -2.78325683 178.46662603 -2.23144531 171.41932011 C-1.8604175 165.9378401 -1.83113108 160.46467992 -1.81054688 154.97241211 C-1.80225357 153.75208282 -1.79396027 152.53175354 -1.78541565 151.27444458 C-1.76366753 147.96505151 -1.74585093 144.65566539 -1.72960854 141.34624171 C-1.71114412 137.82817971 -1.68680575 134.31015847 -1.66296387 130.79212952 C-1.60830377 122.59473718 -1.56013192 114.39731359 -1.51302338 106.19987488 C-1.44121548 93.72566103 -1.36548976 81.25148023 -1.28125 68.77734375 C-1.27656204 68.07235355 -1.27187408 67.36736335 -1.26704407 66.64100981 C-1.11829949 44.41852654 -0.79792358 22.20959878 0 0 Z " fill="#619C60" transform="translate(560,372)"/>
<path d="M0 0 C0.33 0 0.66 0 1 0 C1.35321934 14.68706741 1.68407823 29.37458355 2 44.0625 C2.03585268 45.72387245 2.03585268 45.72387245 2.07242966 47.41880798 C2.8951656 85.80455862 3.18604576 124.17054545 3.02602482 162.56446552 C3.01011884 166.4502769 2.99716107 170.33609659 2.98400688 174.22191811 C2.97300504 176.86919762 2.95572711 179.51637999 2.9377594 182.16362 C2.93101893 183.76174833 2.92449059 185.35987759 2.91821289 186.95800781 C2.91148056 187.66068315 2.90474823 188.36335848 2.89781189 189.087327 C2.88699645 193.82122622 3.36416152 198.32112658 4 203 C4.02172852 205.46875 4.02172852 205.46875 3.87890625 207.5 C3.83056641 208.24121094 3.78222656 208.98242188 3.73242188 209.74609375 C3.67634766 210.48988281 3.62027344 211.23367188 3.5625 212 C3.51029297 212.77472656 3.45808594 213.54945313 3.40429688 214.34765625 C3.27633098 216.23224487 3.13914404 218.11620371 3 220 C12.70878908 220.65822299 21.78072189 218.25918844 30 213 C32.12883411 211.86905688 34.16591221 210.94044177 36.4375 210.125 C39.38780561 208.82974388 41.50784238 207.02066834 44 205 C44.66 205 45.32 205 46 205 C46.33 204.01 46.66 203.02 47 202 C47.66 202 48.32 202 49 202 C49.33 201.01 49.66 200.02 50 199 C50.66 199 51.32 199 52 199 C52.061875 198.278125 52.12375 197.55625 52.1875 196.8125 C53.07341697 193.74586433 54.21419202 192.7543923 56.5234375 190.66796875 C59.77275316 186.99744551 61.78613118 182.34405188 64 178 C65 181 65 181 64.06640625 183.34765625 C53.85359144 201.7837765 39.50174554 214.97579041 19 221 C14.10797326 222.32709236 9.21564565 222.11124414 4.1875 222.0625 C3.30384766 222.05798828 2.42019531 222.05347656 1.50976562 222.04882812 C-0.66018559 222.03709866 -2.83010172 222.01916495 -5 222 C-4.01 221.67 -3.02 221.34 -2 221 C-1.99576806 220.06759302 -1.99153612 219.13518604 -1.98717594 218.17452431 C-1.88325918 195.32175709 -1.7744295 172.46901711 -1.66066074 149.61629677 C-1.60574938 138.5641942 -1.55234435 127.51208846 -1.50268555 116.45996094 C-1.45931991 106.80934752 -1.41292436 97.15875385 -1.36312145 87.50817144 C-1.33693352 82.41427434 -1.31210522 77.32038009 -1.29092598 72.2264595 C-1.18968101 48.13562312 -0.86359895 24.07661595 0 0 Z " fill="#227763" transform="translate(444,640)"/>
<path d="M0 0 C0.33 0 0.66 0 1 0 C1.72428167 33.23253511 2.09684771 66.44750649 2.0625 99.6875 C2.06164398 100.5218734 2.06078796 101.3562468 2.05990601 102.21590424 C2.04858948 112.47729257 2.02862402 122.73864482 2 133 C2.7633667 132.84474854 3.5267334 132.68949707 4.31323242 132.52954102 C6.19792932 132.1580819 8.09091453 131.82745012 9.98828125 131.52734375 C23.46127851 129.13671791 39.73687028 122.42102094 49 112 C49.99 112.495 49.99 112.495 51 113 C49.78290092 113.88766304 49.78290092 113.88766304 48.54121399 114.79325867 C45.22321168 118.14944291 45.38445406 121.50681377 45.31443787 126.04707336 C45.32306351 127.12313339 45.33168915 128.19919342 45.34057617 129.30786133 C45.32485062 131.02070816 45.32485062 131.02070816 45.30880737 132.76815796 C45.28002331 136.53972431 45.2863534 140.31037458 45.29296875 144.08203125 C45.27985588 146.69806572 45.26455293 149.31409006 45.24714661 151.93009949 C45.2097187 158.11005856 45.1975594 164.28979759 45.1945222 170.46985883 C45.18982997 177.50743162 45.15690151 184.54478418 45.12162435 191.58225977 C45.04970841 206.05479635 45.01317606 220.52729226 45 235 C43.30021157 232.03355165 42.75238494 229.9231367 42.76622009 226.51499939 C42.76491592 225.62193588 42.76361176 224.72887238 42.76226807 223.80874634 C42.77102966 222.83666229 42.77979126 221.86457825 42.78881836 220.86303711 C42.7901326 219.8333934 42.79144684 218.80374969 42.7928009 217.74290466 C42.79929494 214.33762444 42.81972801 210.93256837 42.83984375 207.52734375 C42.84611328 205.16370385 42.85135366 202.80006102 42.85560608 200.43641663 C42.86891673 194.21177363 42.89335485 187.98722852 42.92095947 181.76263428 C42.96406044 171.79517659 42.99376134 161.82769214 43.0170002 151.86017036 C43.02724643 148.37296576 43.04429422 144.88584011 43.06199646 141.39866638 C43.06882271 139.2683011 43.07543148 137.1379351 43.08178711 135.00756836 C43.09189316 133.54640594 43.09189316 133.54640594 43.10220337 132.0557251 C43.10447685 130.72035957 43.10447685 130.72035957 43.10679626 129.35801697 C43.11207541 128.19743727 43.11207541 128.19743727 43.1174612 127.01341152 C43.07560117 124.79273794 43.07560117 124.79273794 42 122 C41.50371094 122.39832031 41.00742187 122.79664063 40.49609375 123.20703125 C36.13674137 126.60682979 32.16424625 129.03758643 27 131 C26.34 131.33 25.68 131.66 25 132 C22.65276034 132.397493 20.29671452 132.74368723 17.9375 133.0625 C16.03291016 133.32740234 16.03291016 133.32740234 14.08984375 133.59765625 C9.74547341 134.02503939 5.36534191 134 1 134 C1 168.65 1 203.3 1 239 C0.67 239 0.34 239 0 239 C0 160.13 0 81.26 0 0 Z " fill="#739B81" transform="translate(562,567)"/>
<path d="M0 0 C0.33 0 0.66 0 1 0 C1.01030746 0.63797012 1.02061493 1.27594025 1.03123474 1.9332428 C1.14119397 8.70059693 1.25558552 15.46786676 1.37231445 22.23510742 C1.41506985 24.74550578 1.45677285 27.25592233 1.49731445 29.76635742 C1.69867355 42.19344526 1.93255911 54.60819312 2.52734375 67.0234375 C2.98904187 76.70520253 3.15498746 86.36368932 3.13037109 96.0559082 C3.12492977 98.5952736 3.13041339 101.13446741 3.13671875 103.67382812 C3.13975753 112.0595453 2.90364134 120.33357923 2.21630859 128.6965332 C1.91672205 133.27182167 1.96021828 137.82413502 1.99609375 142.40722656 C2.00297324 148.73463649 1.73820639 155.05287358 1.5 161.375 C1.45159225 162.70832498 1.40341426 164.04165832 1.35546875 165.375 C1.23922156 168.58342236 1.1207029 171.79174272 1 175 C3.97 175 6.94 175 10 175 C10 175.33 10 175.66 10 176 C4.06 176 -1.88 176 -8 176 C-8 175.67 -8 175.34 -8 175 C-5.69 175 -3.38 175 -1 175 C-1.16238096 174.4443165 -1.32476192 173.888633 -1.49206352 173.31611061 C-2.04681048 170.78655156 -2.12588134 168.53167923 -2.12698364 165.94223022 C-2.12980347 164.92041656 -2.13262329 163.89860291 -2.13552856 162.8458252 C-2.13350433 161.72929565 -2.1314801 160.61276611 -2.12939453 159.46240234 C-2.13114685 158.2808255 -2.13289917 157.09924866 -2.13470459 155.88186646 C-2.13835865 152.63143932 -2.13748717 149.38105275 -2.1343255 146.1306262 C-2.1317763 142.68560424 -2.13414856 139.24058482 -2.13571167 135.79556274 C-2.1375352 129.96966068 -2.13513193 124.14377124 -2.13037109 118.31787109 C-2.12560846 112.4239824 -2.12548113 106.53011906 -2.13037109 100.63623047 C-2.17547999 44.76222706 -2.17547999 44.76222706 -1.5546875 17.9140625 C-1.52556463 16.58171633 -1.52556463 16.58171633 -1.49585342 15.22245407 C-1.44083774 12.79864292 -1.3783609 10.37518449 -1.31201172 7.95166016 C-1.29569073 7.24911732 -1.27936974 6.54657448 -1.26255417 5.82274246 C-1.11641975 1.11641975 -1.11641975 1.11641975 0 0 Z " fill="#115154" transform="translate(674,686)"/>
<path d="M0 0 C11.69269575 5.04180459 18.40360216 17.90810487 23.3125 28.953125 C27.37877593 39.4178057 28.29672607 49.75910372 28.24050903 60.90177917 C28.24221788 62.15666132 28.24392673 63.41154346 28.24568737 64.70445234 C28.25012409 68.15712677 28.24220837 71.60967529 28.23213124 75.0623337 C28.22344553 78.79700797 28.22642051 82.53167588 28.22793579 86.26635742 C28.22898142 92.72685091 28.2227386 99.18730381 28.21146011 105.64778709 C28.19516425 114.98840581 28.18999294 124.32900502 28.18748413 133.66963641 C28.18311343 148.82639957 28.1698213 163.98314113 28.15087891 179.13989258 C28.13250392 193.85799044 28.11835534 208.57608243 28.10986328 223.29418945 C28.10933783 224.20233315 28.10881239 225.11047684 28.10827102 226.04614004 C28.10566083 230.60230475 28.10313344 235.15846951 28.10064721 239.7146343 C28.07993417 277.47643811 28.04472569 315.23821737 28 353 C27.67 353 27.34 353 27 353 C26.99576806 351.84594099 26.99153612 350.69188198 26.98717594 349.50285149 C26.88649754 322.10700581 26.78078767 294.71118339 26.66888306 267.31538116 C26.65511351 263.94332718 26.6413864 260.57127302 26.62768555 257.19921875 C26.62495724 256.52790429 26.62222894 255.85658983 26.61941796 255.1649325 C26.57534462 244.29553107 26.53471037 233.42611937 26.49534739 222.55669998 C26.4548799 211.40343326 26.41064306 200.25018501 26.36312145 189.09694588 C26.33654933 182.83245772 26.31169693 176.56797329 26.29092598 170.30346298 C26.27132686 164.40860934 26.2471732 158.51379201 26.21950912 152.61897087 C26.21015606 150.45422081 26.20247453 148.28946279 26.19658089 146.12470055 C26.18829008 143.17089299 26.17400502 140.21717285 26.15821838 137.26339722 C26.15724028 136.4054109 26.15626217 135.54742458 26.15525442 134.66343868 C26.12538514 130.32193937 25.80014787 126.28202091 25 122 C24.91379935 119.22410055 24.87325207 116.47471888 24.88647461 113.69970703 C24.88632858 112.88928452 24.88618256 112.078862 24.8860321 111.24388123 C24.88672529 108.5818305 24.89448977 105.91985091 24.90234375 103.2578125 C24.90421004 101.40550779 24.90563295 99.55320259 24.90663147 97.70089722 C24.91044003 92.8380394 24.92025608 87.97521169 24.93133545 83.11236572 C24.94158534 78.14522712 24.94613675 73.17808364 24.95117188 68.2109375 C24.96187988 58.47394514 24.97893629 48.73697508 25 39 C24.34 39 23.68 39 23 39 C22.76216797 37.85724609 22.76216797 37.85724609 22.51953125 36.69140625 C21.12161051 30.50502774 19.4198783 25.34656044 16.140625 19.9140625 C14.82002268 17.69798327 13.86189901 15.42898811 13 13 C12.34 13 11.68 13 11 13 C11 12.34 11 11.68 11 11 C10.34 11 9.68 11 9 11 C7.59765625 9.57421875 7.59765625 9.57421875 6.0625 7.6875 C4.53045512 5.81848362 3.03019203 4.02977366 1.30859375 2.33203125 C0 1 0 1 0 0 Z " fill="#6CB1AA" transform="translate(716,448)"/>
<path d="M0 0 C0.66 0 1.32 0 2 0 C2.33 66 2.66 132 3 200 C-2.86662378 191.20006433 -1.28114153 178.18815539 -1.24291992 167.94726562 C-1.24399511 166.26055325 -1.24593729 164.57384124 -1.24867249 162.88713074 C-1.25348625 158.33962288 -1.24590851 153.7922144 -1.23571944 149.24471855 C-1.22687917 144.46575932 -1.22869755 139.68680266 -1.2290802 134.90783691 C-1.22814608 126.88531857 -1.21949674 118.86283823 -1.20581055 110.84033203 C-1.1900878 101.5903924 -1.18481263 92.34049435 -1.1855461 83.09054232 C-1.18622379 73.20617719 -1.17927052 63.3218279 -1.1700995 53.43746758 C-1.16797738 50.60526849 -1.16725958 47.773072 -1.16686058 44.94087219 C-1.16584921 40.47564002 -1.15968838 36.01044215 -1.14969444 31.54522133 C-1.14679669 29.91512068 -1.14553848 28.28501607 -1.14612198 26.65491295 C-1.14810721 17.72544881 -0.93783057 8.8913075 0 0 Z " fill="#507544" transform="translate(488,448)"/>
<path d="M0 0 C0.66 0 1.32 0 2 0 C2 41.25 2 82.5 2 125 C1.01 124.34 0.02 123.68 -1 123 C-1.34851074 121.09350586 -1.34851074 121.09350586 -1.31054688 118.71484375 C-1.30349731 117.80911621 -1.29644775 116.90338867 -1.28918457 115.97021484 C-1.26594116 114.96941895 -1.24269775 113.96862305 -1.21875 112.9375 C-1.20614136 111.88256348 -1.19353271 110.82762695 -1.18054199 109.74072266 C-1.15046335 107.41184843 -1.11317618 105.08305949 -1.06982422 102.75439453 C-0.99770718 98.87671674 -0.94429206 94.99911951 -0.89453125 91.12109375 C-0.79340221 83.46295063 -0.66728783 75.80532886 -0.53643799 68.14764404 C-0.47465215 64.50600556 -0.41517521 60.86432931 -0.35546875 57.22265625 C-0.23916121 50.14840029 -0.12041994 43.07418726 0 36 C-2.51083114 37.25541557 -2.87125446 38.50063488 -4 41 C-5.3271261 37.0186217 -5.06915913 33.14954773 -5 29 C-6.32 28.67 -7.64 28.34 -9 28 C-3.84931507 7.69863014 -3.84931507 7.69863014 0 0 Z " fill="#919C85" transform="translate(487,322)"/>
<path d="M0 0 C1.17755859 -0.020625 2.35511719 -0.04125 3.56835938 -0.0625 C12.95503133 -0.10405693 21.83218663 0.96845948 30.0625 5.8125 C31.14917969 6.43318359 31.14917969 6.43318359 32.2578125 7.06640625 C33.9375 8.25 33.9375 8.25 34.9375 10.25 C29.94773487 8.76655631 25.39080069 6.63327921 20.71875 4.37109375 C8.60495759 -0.51185347 -10.88132628 0.64629381 -22.87890625 5.35546875 C-25.65163315 6.58150446 -28.35629201 7.88368579 -31.0625 9.25 C-31.94905273 9.62463379 -31.94905273 9.62463379 -32.85351562 10.00683594 C-39.07122109 12.77060293 -43.44548085 16.94173901 -48.1875 21.75 C-48.98357666 22.55228027 -49.77965332 23.35456055 -50.59985352 24.18115234 C-56.31177165 30.10378761 -60.29915596 35.43058105 -63.0625 43.25 C-63.52076172 44.31734375 -63.52076172 44.31734375 -63.98828125 45.40625 C-65.81604332 49.77208926 -66.73572731 54.19603421 -67.58984375 58.83984375 C-68.21898009 62.04791914 -69.11108608 65.12392571 -70.0625 68.25 C-70.7225 68.25 -71.3825 68.25 -72.0625 68.25 C-72.10117187 69.16265625 -72.10117187 69.16265625 -72.140625 70.09375 C-72.52943938 76.10269955 -73.46877079 81.89080846 -74.8125 87.75 C-74.95719727 88.44416016 -75.10189453 89.13832031 -75.25097656 89.85351562 C-76.08111819 93.27135124 -76.77680961 95.01344108 -79.515625 97.28125 C-82.0625 98.25 -82.0625 98.25 -85.0625 97.25 C-84.55612019 95.22448078 -84.04937821 93.20188677 -83.5 91.1875 C-82.95236956 89.09332634 -82.95236956 89.09332634 -83.0625 86.25 C-82.51318194 84.81117705 -81.90142685 83.39556614 -81.25 82 C-79.90810633 79.10831364 -78.6540254 76.22100157 -77.5 73.25 C-77.025625 72.26 -76.55125 71.27 -76.0625 70.25 C-74.5775 69.755 -74.5775 69.755 -73.0625 69.25 C-72.26565981 66.78676397 -71.66061081 64.45862898 -71.125 61.9375 C-70.78182483 60.46670255 -70.43544063 58.99665036 -70.0859375 57.52734375 C-69.82828613 56.43462158 -69.82828613 56.43462158 -69.56542969 55.31982422 C-65.08132011 36.86531887 -54.68768285 21.1396468 -39.0625 10.25 C-32.07738429 6.11134153 -24.92303882 3.22937481 -17.0625 1.25 C-16.47992432 1.07799072 -15.89734863 0.90598145 -15.29711914 0.72875977 C-10.31212036 -0.33925975 -5.0765501 0.02172948 0 0 Z " fill="#B2C883" transform="translate(448.0625,431.75)"/>
<path d="M0 0 C0.33 0 0.66 0 1 0 C1.33 17.49 1.66 34.98 2 53 C2.33 53 2.66 53 3 53 C3.13329649 61.81765898 3.2638015 70.63535429 3.39115143 79.45310116 C3.45042401 83.55168052 3.51050747 87.65024394 3.57275391 91.7487793 C3.90742821 113.83436449 4.07226409 135.9117862 4 158 C2.68 158 1.36 158 0 158 C0 105.86 0 53.72 0 0 Z " fill="#195F4F" transform="translate(559,779)"/>
<path d="M0 0 C0.33 0 0.66 0 1 0 C1.28529189 3.23330805 1.06093235 4.88078453 -0.4375 7.8125 C-2.33591865 11.68527405 -2.56583281 14.73068932 -3 19 C-3.33 19.33 -3.66 19.66 -4 20 C-4.15994969 22.19516087 -4.24973184 24.39544827 -4.31297302 26.59552002 C-4.33353402 27.28566932 -4.35409501 27.97581862 -4.37527907 28.68688154 C-4.44159428 30.99588602 -4.49957832 33.30500112 -4.55639648 35.61425781 C-4.57740634 36.41580874 -4.59841619 37.21735967 -4.62006271 38.04320002 C-5.09147144 56.21693909 -5.13204836 74.38593187 -5.10139394 92.56462383 C-5.09498281 97.03675351 -5.09454301 101.5088845 -5.09336853 105.98101807 C-5.09030601 114.38403469 -5.08216397 122.78703772 -5.07201904 131.19004846 C-5.06069648 140.78441107 -5.05530752 150.37877447 -5.05032361 159.97314215 C-5.03997475 179.64876903 -5.02247792 199.32438341 -5 219 C-5.33 219 -5.66 219 -6 219 C-6.69008054 180.44417238 -7.30834681 141.88755177 -7.68042183 103.32721138 C-7.751373 96.0122961 -7.83076831 88.69765539 -7.92944336 81.38305664 C-8.01807124 74.81269361 -8.09185333 68.24235832 -8.14799136 61.67163438 C-8.17766174 58.25063852 -8.21386394 54.83005619 -8.26828957 51.40935707 C-8.54157581 33.07365516 -7.81623842 16.92132467 0 0 Z " fill="#A2BF74" transform="translate(496,289)"/>
<path d="M0 0 C0.91858284 3.1279583 1.12440627 5.92257134 1.12304783 9.1774025 C1.12503888 10.23038536 1.12702993 11.28336823 1.12908131 12.36825967 C1.12471205 14.10170935 1.12471205 14.10170935 1.12025452 15.87017822 C1.12110894 17.09866163 1.12196337 18.32714504 1.12284368 19.59285522 C1.12420757 23.00431131 1.12107632 26.41571022 1.11606562 29.8271594 C1.11175191 33.5053784 1.1132082 37.18359559 1.1139679 40.86181641 C1.11449254 47.23511423 1.11135189 53.60840183 1.10573006 59.98169708 C1.09760709 69.19644064 1.09499902 78.41117924 1.09374207 87.62592599 C1.0915528 102.57581544 1.08489611 117.52569944 1.07543945 132.47558594 C1.06626209 146.99902316 1.05918284 161.5224589 1.05493164 176.04589844 C1.05466892 176.94094622 1.05440619 177.835994 1.05413551 178.75816444 C1.05283048 183.24830326 1.05156677 187.7384421 1.05032361 192.22858095 C1.03995491 229.48572448 1.02233999 266.74286182 1 304 C0.34 304 -0.32 304 -1 304 C-1.33 213.25 -1.66 122.5 -2 29 C-2.66 29.99 -3.32 30.98 -4 32 C-4.66 31.34 -5.32 30.68 -6 30 C-5.8984375 28.06640625 -5.8984375 28.06640625 -5.375 25.5625 C-5.1790625 24.59828125 -4.983125 23.6340625 -4.78125 22.640625 C-4.5234375 21.43921875 -4.265625 20.2378125 -4 19 C-3.65544616 17.3491259 -3.31175811 15.69807096 -2.96875 14.046875 C-1.99205256 9.36179317 -0.99912101 4.68034842 0 0 Z " fill="#99A899" transform="translate(376,500)"/>
<path d="M0 0 C0.33 0 0.66 0 1 0 C1.30778272 19.74908058 1.60384964 39.49830353 1.8859272 59.2477684 C2.01717125 68.4175507 2.15226477 77.58724625 2.29638672 86.75683594 C2.42197721 94.74800206 2.5403796 102.73923662 2.65011108 110.73063684 C2.70847807 114.96296018 2.77047071 119.19516103 2.84106827 123.4272995 C2.90738516 127.4096275 2.9640997 131.39197612 3.01341248 135.37454987 C3.03322221 136.83712503 3.05655728 138.29965729 3.08366013 139.76211548 C3.12011301 141.7574177 3.14270827 143.75295881 3.1645813 145.74847412 C3.18946971 147.42429377 3.18946971 147.42429377 3.21486092 149.13396835 C3 152 3 152 1 156 C0.67 138.18 0.34 120.36 0 102 C-0.33 115.86 -0.66 129.72 -1 144 C-1.33 144 -1.66 144 -2 144 C-2.14390938 110.87870272 -1.94990857 77.76467137 -1.59428024 44.64538574 C-1.56239824 41.61532842 -1.53243044 38.58525745 -1.50296021 35.55517578 C-1.45584137 30.74442892 -1.40354474 25.93376586 -1.34712219 21.12311935 C-1.32673172 19.324739 -1.30797978 17.52633928 -1.29090881 15.72792435 C-1.26703505 13.25815164 -1.23701921 10.78853055 -1.20532227 8.31884766 C-1.19956712 7.58587463 -1.19381197 6.85290161 -1.18788242 6.09771729 C-1.11421544 1.11421544 -1.11421544 1.11421544 0 0 Z " fill="#1C857D" transform="translate(674,585)"/>
<path d="M0 0 C0.33 0 0.66 0 1 0 C1.07453648 5.55010083 1.12878399 11.09990586 1.16479492 16.65039062 C1.17981793 18.53585897 1.20024231 20.42129275 1.22631836 22.30664062 C1.26298863 25.0274309 1.27979146 27.74775641 1.29296875 30.46875 C1.30845261 31.30241089 1.32393646 32.13607178 1.33988953 32.99499512 C1.34149812 38.67581815 0.25040426 42.7796769 -2 48 C-2.29261719 48.85207031 -2.58523438 49.70414063 -2.88671875 50.58203125 C-7.18627244 62.55786128 -16.12229348 72.12229348 -25 81 C-25.29820632 83.19069543 -25.29820632 83.19069543 -25.24050903 85.75820923 C-25.24325836 86.76224289 -25.24600769 87.76627655 -25.24884033 88.80073547 C-25.24164978 89.90628281 -25.23445923 91.01183014 -25.22705078 92.15087891 C-25.22734283 93.31184586 -25.22763489 94.47281281 -25.22793579 95.66896057 C-25.22653804 99.52156954 -25.21095575 103.37398715 -25.1953125 107.2265625 C-25.19158395 109.8917168 -25.1886379 112.55686037 -25.18673706 115.22201538 C-25.18051488 121.52956575 -25.16409413 127.837047 -25.14403808 134.14456689 C-25.12170199 141.32463622 -25.11069143 148.5047088 -25.10064721 155.6848042 C-25.07972851 170.45657153 -25.04453823 185.22828456 -25 200 C-27.48458019 197.51541981 -27.26498697 196.74546954 -27.31452942 193.31581116 C-27.33317551 192.32767426 -27.35182159 191.33953735 -27.37103271 190.32145691 C-27.38112366 189.23319107 -27.3912146 188.14492523 -27.40161133 187.02368164 C-27.4195726 185.88038391 -27.43753387 184.73708618 -27.45603943 183.55914307 C-27.51094868 179.75951507 -27.54878402 175.96003323 -27.58203125 172.16015625 C-27.59987451 170.21418958 -27.59987451 170.21418958 -27.61807823 168.22891045 C-27.66522658 162.77218807 -27.70783989 157.31551644 -27.73419666 151.85865116 C-27.77225261 144.05486346 -27.84715302 136.25344779 -27.97403508 128.45058352 C-28.06030591 122.95658196 -28.10380469 117.46321324 -28.11631411 111.96855444 C-28.12488542 108.69117973 -28.15716929 105.41699129 -28.22416115 102.14021492 C-28.66102013 79.51285404 -28.66102013 79.51285404 -23.1736784 73.50283718 C-20.9237029 71.47790563 -18.4500411 69.77368106 -16 68 C-3.91984857 52.51957823 -0.60058756 34.81352068 -0.3125 15.75 C-0.27923931 14.21481628 -0.24474197 12.67965884 -0.20898438 11.14453125 C-0.12510038 7.42988088 -0.05782969 3.71515825 0 0 Z " fill="#246665" transform="translate(634,606)"/>
<path d="M0 0 C2.96673182 1.8169458 4.50613896 3.0587696 6.265625 6 C2.08103255 3.96185732 -1.93603842 1.64050022 -5.98046875 -0.66015625 C-8.61827099 -1.94351252 -10.84658478 -2.57547911 -13.734375 -3 C-13.734375 -3.66 -13.734375 -4.32 -13.734375 -5 C-28.60274682 -7.37090253 -45.69607214 -9.31028663 -59.734375 -3 C-60.49878906 -2.67644531 -61.26320313 -2.35289062 -62.05078125 -2.01953125 C-64.30306953 -1.05108439 -66.53123817 -0.07585856 -68.734375 1 C-69.59490479 1.30220459 -70.45543457 1.60440918 -71.34204102 1.91577148 C-73.8795663 3.70687587 -73.8795663 3.70687587 -74.16593933 5.99783325 C-74.3025079 8.81454041 -74.26685759 11.59104555 -74.1875 14.41015625 C-74.17769104 15.51692215 -74.16788208 16.62368805 -74.15777588 17.76399231 C-74.13392512 20.22077795 -74.0988777 22.6774726 -74.05444336 25.13397217 C-73.9449981 31.27024766 -73.90390714 37.40690314 -73.86035156 43.54392242 C-73.8433969 45.84080408 -73.82353274 48.13765075 -73.80371094 50.43450928 C-73.63339931 72.12625493 -73.94751827 93.81718404 -74.19615173 115.50730515 C-74.25964325 121.10128126 -74.31959107 126.69529529 -74.37988281 132.28930664 C-74.49435943 142.85958061 -74.61289309 153.42980436 -74.734375 164 C-75.064375 164 -75.394375 164 -75.734375 164 C-75.92120496 142.96435133 -76.0623047 121.92883932 -76.14887238 100.89252949 C-76.1901347 91.12509246 -76.24639482 81.35817074 -76.33789062 71.59106445 C-76.41759498 63.07863325 -76.46923264 54.56657519 -76.48708296 46.05378121 C-76.49751878 41.54551424 -76.52206381 37.03831478 -76.58021545 32.53038979 C-76.63450636 28.2873863 -76.65127089 24.04589008 -76.63923645 19.80257225 C-76.64143797 18.2452462 -76.65736192 16.68786994 -76.6880188 15.13084412 C-76.90819126 3.37207237 -76.90819126 3.37207237 -74.01879883 -0.00533485 C-71.94212662 -1.34485513 -70.06997439 -2.21152392 -67.734375 -3 C-66.54714844 -3.49886719 -65.35992188 -3.99773437 -64.13671875 -4.51171875 C-62.99332031 -4.89972656 -61.84992187 -5.28773438 -60.671875 -5.6875 C-59.52589844 -6.08324219 -58.37992188 -6.47898437 -57.19921875 -6.88671875 C-56.05582031 -7.25410156 -54.91242187 -7.62148438 -53.734375 -8 C-52.62191406 -8.36996094 -51.50945313 -8.73992187 -50.36328125 -9.12109375 C-32.74900031 -13.38720054 -15.61437008 -8.07181858 0 0 Z " fill="#37997D" transform="translate(709.734375,442)"/>
<path d="M0 0 C-3.51964833 2.34643222 -5.82569842 2.51299815 -10 3 C-12.33386739 3.32957332 -14.6672845 3.66237012 -17 4 C-16.84402344 5.12019531 -16.68804688 6.24039063 -16.52734375 7.39453125 C-16.33037066 8.86713959 -16.13377577 10.33979856 -15.9375 11.8125 C-15.83373047 12.55048828 -15.72996094 13.28847656 -15.62304688 14.04882812 C-15.17913434 17.43174779 -14.90685008 19.72055025 -16 23 C-16.10594331 25.82355406 -16.15485 28.62305686 -16.15821838 31.44706726 C-16.16562535 32.75560715 -16.16562535 32.75560715 -16.17318195 34.09058219 C-16.18858656 37.02482302 -16.1969256 39.95904191 -16.20532227 42.89331055 C-16.21489846 44.99225051 -16.22490839 47.09118853 -16.23532104 49.19012451 C-16.2624042 54.89843012 -16.28339529 60.60674403 -16.30332303 66.3150785 C-16.32516156 72.27686568 -16.35256067 78.23862719 -16.37937927 84.20039368 C-16.42933504 95.49443171 -16.47426317 106.78848397 -16.51740164 118.08254987 C-16.56674938 130.93849821 -16.62167663 143.79442081 -16.67708123 156.65034425 C-16.79094555 183.10020548 -16.89777489 209.55009141 -17 236 C-17.33 236 -17.66 236 -18 236 C-18 158.45 -18 80.9 -18 1 C-3 -1 -3 -1 0 0 Z " fill="#BDE0D7" transform="translate(581,700)"/>
<path d="M0 0 C0.33 0 0.66 0 1 0 C1.01030746 0.63797012 1.02061493 1.27594025 1.03123474 1.9332428 C1.14119397 8.70059693 1.25558552 15.46786676 1.37231445 22.23510742 C1.41506985 24.74550578 1.45677285 27.25592233 1.49731445 29.76635742 C1.69854744 42.18566212 1.93200086 54.59257459 2.52734375 67 C2.99526453 76.79918057 3.15492615 86.57575328 3.13037109 96.38549805 C3.12488787 98.99077881 3.1304334 101.59589542 3.13671875 104.20117188 C3.13605964 105.89322954 3.13478195 107.5852871 3.1328125 109.27734375 C3.13483673 110.03885239 3.13686096 110.80036102 3.13894653 111.58494568 C3.11773584 116.47007979 2.68848838 121.16246321 2 126 C1.67 126 1.34 126 1 126 C0.67 104.55 0.34 83.1 0 61 C-0.33 80.8 -0.66 100.6 -1 121 C-1.33 121 -1.66 121 -2 121 C-2.19573412 43.08716705 -2.19573412 43.08716705 -1.5625 17.1875 C-1.54285187 16.32545959 -1.52320374 15.46341919 -1.50296021 14.57525635 C-1.18612615 1.18612615 -1.18612615 1.18612615 0 0 Z " fill="#176968" transform="translate(674,686)"/>
<path d="M0 0 C0.33 0 0.66 0 1 0 C1.09361887 25.16574429 1.16406508 50.33146231 1.20724869 75.49734592 C1.22783635 87.18342996 1.25588416 98.86940553 1.30175781 110.55541992 C1.34174201 120.7460295 1.36746038 130.93656047 1.37635398 141.12724632 C1.38154914 146.51854465 1.39368003 151.90961821 1.42292023 157.30084419 C1.45027261 162.38568011 1.45840529 167.4702008 1.45243073 172.5551033 C1.45352216 174.41132387 1.46135701 176.26755608 1.4768219 178.12371254 C1.59240138 192.72455194 -0.08138529 205.69768914 -7.0625 218.8125 C-7.40087891 219.49119141 -7.73925781 220.16988281 -8.08789062 220.86914062 C-9.78359953 224.16544129 -10.86146281 225.90764187 -14 228 C-12.20078275 223.24107038 -9.90200658 218.76972191 -7.56640625 214.25976562 C-0.35979561 200.10944644 -0.69922263 184.54032394 -0.68115234 169.03930664 C-0.67183143 167.18489658 -0.66165963 165.33049064 -0.65071106 163.47608948 C-0.62364059 158.48954213 -0.60833053 153.50302266 -0.59528303 148.51642156 C-0.57955096 143.28739972 -0.55279339 138.05843398 -0.5272522 132.82945251 C-0.48064154 122.94891846 -0.44381222 113.06837364 -0.41057932 103.18778652 C-0.37223207 91.93006053 -0.32285531 80.67239115 -0.27259517 69.41471303 C-0.16953906 46.27651741 -0.08019384 23.13828536 0 0 Z " fill="#75B874" transform="translate(633,444)"/>
<path d="M0 0 C0.33 0 0.66 0 1 0 C1.04678309 15.89903172 1.08201971 31.79804477 1.10362434 47.6971283 C1.11392372 55.07984726 1.12795838 62.46252338 1.15087891 69.84521484 C1.17085386 76.28222305 1.18372616 82.71920022 1.18817699 89.15623856 C1.19077743 92.56255182 1.19686153 95.96877631 1.21146011 99.37506104 C1.22599521 103.18368781 1.22797706 106.99213116 1.22705078 110.80078125 C1.23424133 111.92215988 1.24143188 113.04353851 1.24884033 114.19889832 C1.19866427 133.28758346 -7.76208592 148.73945701 -21 162 C-26.22143653 166.66163339 -32.38618176 170.63876116 -39 173 C-39.99 172.67 -40.98 172.34 -42 172 C-40.04414675 170.99515796 -38.08523763 169.99626195 -36.125 169 C-35.03445313 168.443125 -33.94390625 167.88625 -32.8203125 167.3125 C-30 166 -30 166 -28 166 C-28 165.34 -28 164.68 -28 164 C-26.56015998 163.06242975 -25.11775902 162.12845953 -23.66015625 161.21875 C-21.85888584 159.89640561 -20.63240606 158.49967215 -19.25 156.75 C-18.5075 155.8425 -17.765 154.935 -17 154 C-16.34 154 -15.68 154 -15 154 C-14.7525 153.319375 -14.505 152.63875 -14.25 151.9375 C-12.75802092 148.43134917 -10.93164489 145.28379632 -9 142 C-8.34 142 -7.68 142 -7 142 C-6.87625 141.28714844 -6.7525 140.57429687 -6.625 139.83984375 C-5.78068714 136.00349718 -4.35244203 132.47340717 -2.9375 128.81640625 C-1.09275754 123.27449246 -0.86065084 117.86794495 -0.90234375 112.0715332 C-0.90380402 111.29782379 -0.90526428 110.52411438 -0.9067688 109.72695923 C-0.91056439 108.04921643 -0.91666993 106.3714776 -0.92483521 104.69375038 C-0.93774595 101.99945403 -0.9441559 99.3052079 -0.94897461 96.61088562 C-0.96227053 89.89266409 -0.98597021 83.17448787 -1.01037598 76.45629883 C-1.03383595 69.90446616 -1.05223892 63.35264863 -1.0625 56.80078125 C-1.06402069 55.88360447 -1.06554138 54.96642769 -1.06710815 54.02145767 C-1.08637786 36.0012738 -0.65865018 18.00722866 0 0 Z " fill="#256D69" transform="translate(742,684)"/>
<path d="M0 0 C11.69002699 5.04065384 18.56040339 18.01415396 23.34765625 29.12890625 C26.1917582 36.62143289 27.15078586 43.47022466 27.11352539 51.48388672 C27.11367142 52.31381638 27.11381744 53.14374603 27.1139679 53.99882507 C27.11327453 56.72580635 27.10550923 59.45271824 27.09765625 62.1796875 C27.09579002 64.07683271 27.09436709 65.9739784 27.09336853 67.87112427 C27.08955948 72.85234926 27.07974301 77.83354487 27.06866455 82.8147583 C27.05841572 87.90254316 27.05386348 92.99033278 27.04882812 98.078125 C27.03811925 108.05209621 27.02106225 118.02604566 27 128 C26.67 128 26.34 128 26 128 C25.0482961 123.20921983 24.86328993 118.56546976 24.88647461 113.69970703 C24.88632858 112.88928452 24.88618256 112.078862 24.8860321 111.24388123 C24.88672529 108.5818305 24.89448977 105.91985091 24.90234375 103.2578125 C24.90421004 101.40550779 24.90563295 99.55320259 24.90663147 97.70089722 C24.91044003 92.8380394 24.92025608 87.97521169 24.93133545 83.11236572 C24.94158534 78.14522712 24.94613675 73.17808364 24.95117188 68.2109375 C24.96187988 58.47394514 24.97893629 48.73697508 25 39 C24.34 39 23.68 39 23 39 C22.76216797 37.85724609 22.76216797 37.85724609 22.51953125 36.69140625 C21.12161051 30.50502774 19.4198783 25.34656044 16.140625 19.9140625 C14.82002268 17.69798327 13.86189901 15.42898811 13 13 C12.34 13 11.68 13 11 13 C11 12.34 11 11.68 11 11 C10.34 11 9.68 11 9 11 C7.59765625 9.57421875 7.59765625 9.57421875 6.0625 7.6875 C4.53045512 5.81848362 3.03019203 4.02977366 1.30859375 2.33203125 C0 1 0 1 0 0 Z " fill="#3CBBAA" transform="translate(716,448)"/>
<path d="M0 0 C0.33 0 0.66 0 1 0 C1.02335242 13.53656648 1.04103023 27.07312803 1.05181217 40.60971069 C1.05699155 46.89785482 1.06399729 53.18598499 1.07543945 59.47412109 C1.08644668 65.56257257 1.09231388 71.65101077 1.09487724 77.73947144 C1.09669983 80.04182138 1.10025719 82.34417074 1.10573006 84.64651489 C1.14100106 100.12513997 0.76617195 115.53995205 0 131 C-4.62 130.67 -9.24 130.34 -14 130 C-14 129.67 -14 129.34 -14 129 C-10.37 128.67 -6.74 128.34 -3 128 C-2.28396653 124.41983265 -1.87881593 121.84748529 -1.90234375 118.32080078 C-1.90564697 117.42281769 -1.9089502 116.52483459 -1.91235352 115.59963989 C-1.92065186 114.64121185 -1.9289502 113.68278381 -1.9375 112.6953125 C-1.94128662 111.69797089 -1.94507324 110.70062927 -1.94897461 109.67306519 C-1.96527934 105.41757141 -1.99339078 101.16217469 -2.02050781 96.90673828 C-2.03864325 93.79460091 -2.05070662 90.68247934 -2.0625 87.5703125 C-2.07494751 86.13874313 -2.07494751 86.13874313 -2.08764648 84.67825317 C-2.09260132 83.32182205 -2.09260132 83.32182205 -2.09765625 81.93798828 C-2.10289307 81.15142853 -2.10812988 80.36486877 -2.11352539 79.55447388 C-2 77 -2 77 -1.50672913 73.64265442 C-0.99735286 69.98097086 -0.84145147 66.4746664 -0.79467773 62.77954102 C-0.77982834 61.75388283 -0.77982834 61.75388283 -0.76467896 60.70750427 C-0.73337884 58.47300544 -0.70843276 56.23848543 -0.68359375 54.00390625 C-0.66299693 52.44448836 -0.64199979 50.8850757 -0.62062073 49.32566833 C-0.56568152 45.24049143 -0.51614927 41.15526652 -0.46777344 37.07000732 C-0.41735158 32.89363379 -0.36177397 28.71732915 -0.30664062 24.54101562 C-0.1994039 16.3607355 -0.09788379 8.18039737 0 0 Z " fill="#548351" transform="translate(559,570)"/>
<path d="M0 0 C0.33 0 0.66 0 1 0 C1 33.99 1 67.98 1 103 C0.67 103 0.34 103 0 103 C-0.33 95.41 -0.66 87.82 -1 80 C-1.33 80 -1.66 80 -2 80 C-2.11026006 59.53573213 -2.05393828 39.08453587 -1.5625 18.625 C-1.54285187 17.74166992 -1.52320374 16.85833984 -1.50296021 15.94824219 C-1.44636573 13.45750326 -1.38276727 10.96705815 -1.31640625 8.4765625 C-1.29968872 7.73048737 -1.28297119 6.98441223 -1.26574707 6.21572876 C-1.11535403 1.11535403 -1.11535403 1.11535403 0 0 Z " fill="#53945F" transform="translate(445,594)"/>
<path d="M0 0 C3.00627807 3.00627807 4.45960045 6.87436423 6.2578125 10.68164062 C8.48830155 15.28447 10.70099047 19.36658655 14.94008636 22.37840366 C18.12646267 24.7154023 20.57869495 26.5800111 21.72904968 30.45722771 C21.9834428 33.41887951 21.99032101 36.28792358 21.90820312 39.25952148 C21.90937134 40.37245071 21.91053955 41.48537994 21.91174316 42.6320343 C21.90618683 46.2963409 21.84404236 49.95735861 21.78125 53.62109375 C21.76632297 56.16697919 21.75493814 58.71288766 21.74694824 61.25880432 C21.71956528 67.26577414 21.65657593 73.27134071 21.57615232 79.27774912 C21.48654792 86.1192111 21.44270136 92.96073088 21.40258884 99.80263412 C21.31910095 113.86907077 21.17850435 127.93447104 21 142 C20.67 142 20.34 142 20 142 C19.99576806 141.43070109 19.99153612 140.86140219 19.98717594 140.2748518 C19.88391706 126.42906365 19.77522437 112.58332737 19.66066074 98.73762798 C19.6054238 92.04198029 19.55188167 85.3463297 19.50268555 78.65063477 C19.45505347 72.19266191 19.40271097 65.73474304 19.34705925 59.27683449 C19.32663047 56.80921582 19.30791827 54.34158233 19.29092598 51.87393761 C19.26689367 48.42591354 19.2368373 44.97799193 19.20532227 41.5300293 C19.19668907 39.98931007 19.19668907 39.98931007 19.18788147 38.41746521 C19.17809265 37.47937012 19.16830383 36.54127502 19.15821838 35.57475281 C19.15176583 34.75896602 19.14531328 33.94317923 19.1386652 33.10267162 C19.07637938 30.8072798 19.07637938 30.8072798 18 28 C17.41089844 27.72285156 16.82179688 27.44570313 16.21484375 27.16015625 C9.45314444 23.61831375 2.68626179 12.03287635 0 5 C-0.12109375 2.24609375 -0.12109375 2.24609375 0 0 Z " fill="#2A6656" transform="translate(493,654)"/>
<path d="M0 0 C2.96478785 3.38832897 3.96393958 6.68487782 5.125 11 C5.45757813 12.216875 5.79015625 13.43375 6.1328125 14.6875 C6.56207031 16.3271875 6.56207031 16.3271875 7 18 C7.18040549 18.61582569 7.36081099 19.23165138 7.54668331 19.86613846 C8.09405307 22.44272854 8.12277853 24.81921239 8.12025452 27.45428467 C8.12162918 28.56203751 8.12300385 29.66979034 8.12442017 30.81111145 C8.12082489 32.02167709 8.11722961 33.23224274 8.11352539 34.47949219 C8.11367142 35.75779404 8.11381744 37.03609589 8.1139679 38.35313416 C8.11425475 41.8548658 8.108376 45.35656318 8.10139394 48.85828686 C8.09514189 52.51914992 8.09455513 56.18001377 8.09336853 59.84088135 C8.09026068 66.77166051 8.08205464 73.7024239 8.07201904 80.63319612 C8.06084096 88.52430947 8.05534318 96.41542357 8.05032361 104.30654287 C8.03987159 120.53770448 8.0222827 136.76885023 8 153 C7.67 153 7.34 153 7 153 C7 110.76 7 68.52 7 25 C6.34 25 5.68 25 5 25 C4.96132813 23.98292969 4.96132813 23.98292969 4.921875 22.9453125 C4.54454369 16.75364873 3.44824335 11.82592069 0.83984375 6.19140625 C0 4 0 4 0 0 Z " fill="#AAC379" transform="translate(626,291)"/>
<path d="M0 0 C0.66 0 1.32 0 2 0 C2.55164464 6.37456033 1.74936321 12.24750451 0.3125 18.4375 C0.16393555 19.13552734 0.01537109 19.83355469 -0.13769531 20.55273438 C-0.98999531 23.97861342 -1.70971484 25.75955713 -4.45703125 28.03515625 C-7 29 -7 29 -10 28 C-9.49362019 25.97448078 -8.98687821 23.95188677 -8.4375 21.9375 C-7.88986956 19.84332634 -7.88986956 19.84332634 -8 17 C-7.45068194 15.56117705 -6.83892685 14.14556614 -6.1875 12.75 C-4.85078628 9.84904681 -3.54275882 6.94774887 -2.3125 4 C-1 1 -1 1 0 0 Z " fill="#D8D8D4" transform="translate(373,501)"/>
<path d="M0 0 C1.953125 2.25 1.953125 2.25 3 4 C-1.18459245 1.96185732 -5.20166342 -0.35949978 -9.24609375 -2.66015625 C-11.88389599 -3.94351252 -14.11220978 -4.57547911 -17 -5 C-17 -5.66 -17 -6.32 -17 -7 C-33.14198999 -9.573993 -50.29972254 -11.05478344 -65.3515625 -3.87890625 C-66.14304687 -3.50636719 -66.93453125 -3.13382812 -67.75 -2.75 C-68.46671875 -2.39421875 -69.1834375 -2.0384375 -69.921875 -1.671875 C-72.36168072 -0.88306563 -73.61410834 -1.16171374 -76 -2 C-50.40107875 -16.06534134 -24.91093012 -15.25645481 0 0 Z " fill="#55CBBC" transform="translate(713,444)"/>
<path d="M0 0 C0.33 0 0.66 0 1 0 C1.02526605 7.67211202 1.04283123 15.3442134 1.05493164 23.01635742 C1.05997377 25.62866619 1.06680725 28.24097211 1.07543945 30.85327148 C1.08751036 34.59880268 1.09322935 38.34429672 1.09765625 42.08984375 C1.10281754 43.26586655 1.10797882 44.44188934 1.11329651 45.65354919 C1.11337204 46.73459427 1.11344757 47.81563934 1.11352539 48.92944336 C1.115746 49.88652695 1.11796661 50.84361053 1.12025452 51.82969666 C1 54 1 54 0 55 C-0.16029688 57.95529504 -0.25957328 60.88982457 -0.31640625 63.84765625 C-0.33718735 64.7340831 -0.35796844 65.62050995 -0.37937927 66.53379822 C-0.444974 69.376617 -0.50380552 72.21953117 -0.5625 75.0625 C-0.6056758 76.98503606 -0.64928978 78.90756234 -0.69335938 80.83007812 C-0.80066543 85.55328668 -0.90190451 90.27659153 -1 95 C-1.33 95 -1.66 95 -2 95 C-2.12320216 71.47407328 -1.99159825 47.96016436 -1.5625 24.4375 C-1.54285187 23.27246948 -1.52320374 22.10743896 -1.50296021 20.90710449 C-1.4462004 17.60330464 -1.38254365 14.29971762 -1.31640625 10.99609375 C-1.29968872 9.99700485 -1.28297119 8.99791595 -1.26574707 7.96855164 C-1.24580688 7.06168106 -1.2258667 6.15481049 -1.20532227 5.22045898 C-1.18977798 4.42558578 -1.1742337 3.63071259 -1.15821838 2.81175232 C-1 1 -1 1 0 0 Z " fill="#649A55" transform="translate(445,540)"/>
<path d="M0 0 C1.33083778 3.76915594 0.70626609 6.79545008 0.0625 10.6875 C-0.96185404 17.26665778 -1.14629228 23.62703239 -0.83764648 30.27612305 C-0.70534228 34.76107494 -1.30933844 37.38903384 -4 41 C-5.3271261 37.0186217 -5.06915913 33.14954773 -5 29 C-6.32 28.67 -7.64 28.34 -9 28 C-3.84931507 7.69863014 -3.84931507 7.69863014 0 0 Z " fill="#A5A7A5" transform="translate(487,322)"/>
<path d="M0 0 C0 0.33 0 0.66 0 1 C-0.55872803 1.01981934 -1.11745605 1.03963867 -1.69311523 1.06005859 C-4.27497418 1.1565219 -6.85615392 1.26569812 -9.4375 1.375 C-10.31599609 1.4059375 -11.19449219 1.436875 -12.09960938 1.46875 C-33.27082023 2.40622059 -50.14222857 12.1892923 -64.26000977 27.55615234 C-66.19177132 29.68796575 -68.10130569 31.83872031 -70 34 C-70 28.05335007 -64.50825604 23.59959069 -60.61328125 19.46875 C-53.51685807 12.5950845 -45.93112763 8.02468451 -37 4 C-35.51306641 3.31550781 -35.51306641 3.31550781 -33.99609375 2.6171875 C-23.18014538 -1.50180216 -11.38015196 -0.36176055 0 0 Z " fill="#B0CD79" transform="translate(571,250)"/>
<path d="M0 0 C1 3 1 3 0.06640625 5.34765625 C-10.14640856 23.7837765 -24.49825446 36.97579041 -45 43 C-48.831466 43.94550693 -52.37021918 44.10582177 -56.3125 44.0625 C-57.38113281 44.05347656 -58.44976562 44.04445313 -59.55078125 44.03515625 C-60.35902344 44.02355469 -61.16726563 44.01195312 -62 44 C-62 43.67 -62 43.34 -62 43 C-61.03320312 42.90203125 -60.06640625 42.8040625 -59.0703125 42.703125 C-51.11766347 41.78975145 -44.27340327 40.53396995 -37 37 C-35.9275 36.484375 -34.855 35.96875 -33.75 35.4375 C-32.8425 34.963125 -31.935 34.48875 -31 34 C-29.989375 33.525625 -28.97875 33.05125 -27.9375 32.5625 C-24.97243458 30.98533755 -22.6068158 29.09993495 -20 27 C-19.34 27 -18.68 27 -18 27 C-17.505 25.515 -17.505 25.515 -17 24 C-16.34 24 -15.68 24 -15 24 C-14.505 22.515 -14.505 22.515 -14 21 C-13.34 21 -12.68 21 -12 21 C-11.938125 20.278125 -11.87625 19.55625 -11.8125 18.8125 C-10.92658303 15.74586433 -9.78580798 14.7543923 -7.4765625 12.66796875 C-4.22724684 8.99744551 -2.21386882 4.34405188 0 0 Z " fill="#285E5A" transform="translate(508,818)"/>
<path d="M0 0 C0.33 0 0.66 0 1 0 C1.09348802 7.82464008 1.16415822 15.64914453 1.20724869 23.47420597 C1.22795055 27.10939092 1.25594026 30.74418837 1.30175781 34.37915039 C1.34584919 37.89999016 1.36926712 41.42046197 1.37950897 44.94155693 C1.3902842 46.91038548 1.42140352 48.87907002 1.45318604 50.84767151 C1.45620733 63.24945006 -1.20570329 74.80984722 -7.0625 85.8125 C-7.40087891 86.49119141 -7.73925781 87.16988281 -8.08789062 87.86914062 C-9.78359953 91.16544129 -10.86146281 92.90764187 -14 95 C-12.20078275 90.24107038 -9.90200658 85.76972191 -7.56640625 81.25976562 C0.97971449 64.4792925 -0.6005745 44.8845537 -0.375 26.5625 C-0.33674514 23.9811077 -0.29768928 21.39972713 -0.2578125 18.81835938 C-0.16263671 12.54567844 -0.07736085 6.27292463 0 0 Z " fill="#63A063" transform="translate(633,577)"/>
<path d="M0 0 C1.76633789 -0.0309375 1.76633789 -0.0309375 3.56835938 -0.0625 C12.95503133 -0.10405693 21.83218663 0.96845948 30.0625 5.8125 C31.14917969 6.43318359 31.14917969 6.43318359 32.2578125 7.06640625 C33.9375 8.25 33.9375 8.25 34.9375 10.25 C29.94773487 8.76655631 25.39080069 6.63327921 20.71875 4.37109375 C8.62757147 -0.50273804 -10.82142365 0.64821491 -22.80859375 5.3203125 C-26.58278679 6.98493578 -30.24401019 8.8261392 -33.90625 10.72265625 C-35.25203125 11.41681641 -35.25203125 11.41681641 -36.625 12.125 C-37.43066406 12.55554688 -38.23632812 12.98609375 -39.06640625 13.4296875 C-39.72511719 13.70039063 -40.38382812 13.97109375 -41.0625 14.25 C-41.7225 13.92 -42.3825 13.59 -43.0625 13.25 C-34.63399018 7.56661858 -27.01276162 3.72706935 -17.0625 1.25 C-16.46711426 1.0749292 -15.87172852 0.8998584 -15.25830078 0.71948242 C-10.28828384 -0.34315295 -5.06067042 0.02166151 0 0 Z " fill="#B3CA8D" transform="translate(448.0625,431.75)"/>
<path d="M0 0 C0.625 1.8515625 0.625 1.8515625 1 4 C-1 6.375 -1 6.375 -4 9 C-4.57878906 9.52207031 -5.15757812 10.04414062 -5.75390625 10.58203125 C-8.73921838 13.23205994 -11.42384861 15.22214188 -15 17 C-16.43758346 18.01260441 -17.8545128 19.05512648 -19.25 20.125 C-19.95640625 20.66382813 -20.6628125 21.20265625 -21.390625 21.7578125 C-21.92171875 22.16773438 -22.4528125 22.57765625 -23 23 C-23.66 21.68 -24.32 20.36 -25 19 C-20.1848868 14.61289686 -15.2012528 11.1729138 -9.66796875 7.74609375 C-6.14355784 5.43948807 -3.11038195 2.83390355 0 0 Z " fill="#C2CACA" transform="translate(494,842)"/>
<path d="M0 0 C0.33 0 0.66 0 1 0 C1.02505615 0.95438965 1.0501123 1.9087793 1.07592773 2.89208984 C1.34695799 13.15695552 1.63528027 23.42125661 1.93359375 33.68536377 C1.9953583 35.83821037 2.05479205 37.99110526 2.11328125 40.14404297 C2.21226395 43.70054621 2.32283158 47.25647299 2.4375 50.8125 C2.46448975 51.8526123 2.49147949 52.89272461 2.51928711 53.96435547 C2.66483353 58.15343969 2.85040626 61.99350026 4.09765625 66.01171875 C5 69 5 69 4 72 C3.505 69.525 3.505 69.525 3 67 C2.34 67 1.68 67 1 67 C-0.10135545 63.69593365 -0.12036063 61.26356307 -0.11352539 57.78442383 C-0.11341209 55.86277153 -0.11341209 55.86277153 -0.11329651 53.90229797 C-0.10818987 52.50387534 -0.10297387 51.1054531 -0.09765625 49.70703125 C-0.09579089 48.27642364 -0.09436754 46.84581539 -0.09336853 45.41520691 C-0.08955267 41.65213249 -0.07973032 37.88909675 -0.06866455 34.1260376 C-0.05843043 30.28520226 -0.05386662 26.44436067 -0.04882812 22.60351562 C-0.03810722 15.0689928 -0.02104196 7.53450182 0 0 Z " fill="#378579" transform="translate(377,746)"/>
<path d="M0 0 C2.0625 0.4375 2.0625 0.4375 4 1 C4.02545425 8.52562738 4.04291059 16.05124356 4.05493164 23.5769043 C4.05994563 26.13452571 4.06675848 28.69214427 4.07543945 31.24975586 C4.08763382 34.93604232 4.09325779 38.62229072 4.09765625 42.30859375 C4.10281754 43.44332626 4.10797882 44.57805878 4.11329651 45.74717712 C4.11372797 51.9191002 3.81533201 57.88077806 3 64 C2.67 64 2.34 64 2 64 C1.67 44.2 1.34 24.4 1 4 C0.34 5.32 -0.32 6.64 -1 8 C-1.04241723 5.66705225 -1.04092937 3.33297433 -1 1 C-0.67 0.67 -0.34 0.34 0 0 Z " fill="#83B261" transform="translate(444,537)"/>
<path d="M0 0 C1.72839111 0.00918457 1.72839111 0.00918457 3.49169922 0.01855469 C15.45368338 0.23717664 25.95460446 2.44727398 36.4375 8.4375 C36.4375 9.0975 36.4375 9.7575 36.4375 10.4375 C33.57170303 9.50805234 30.72592547 8.54610465 27.90625 7.484375 C26.9884375 7.13890625 26.070625 6.7934375 25.125 6.4375 C24.26261719 6.1075 23.40023437 5.7775 22.51171875 5.4375 C15.50538114 3.1584372 8.74092114 2.02396553 1.375 2 C0.56224609 1.99685791 -0.25050781 1.99371582 -1.08789062 1.99047852 C-9.48164147 2.15296455 -16.78169549 4.47106828 -24.5625 7.4375 C-25.5525 7.7675 -26.5425 8.0975 -27.5625 8.4375 C-27.5625 7.7775 -27.5625 7.1175 -27.5625 6.4375 C-22.875 4.38671875 -22.875 4.38671875 -20.5625 3.4375 C-19.41910156 2.91671875 -18.27570312 2.3959375 -17.09765625 1.859375 C-11.51069419 -0.20975065 -5.8928029 -0.05286554 0 0 Z " fill="#CAF3ED" transform="translate(671.5625,430.5625)"/>
<path d="M0 0 C0.66 0.33 1.32 0.66 2 1 C1.19175781 1.63292969 0.38351562 2.26585937 -0.44921875 2.91796875 C-4.04691462 6.51566462 -3.77803429 10.46049433 -3.8125 15.3125 C-3.83763672 16.14845703 -3.86277344 16.98441406 -3.88867188 17.84570312 C-3.9472699 19.89663409 -3.97656493 21.94836593 -4 24 C-4.33 24 -4.66 24 -5 24 C-5.06058594 23.24074219 -5.12117187 22.48148438 -5.18359375 21.69921875 C-5.30927734 20.20841797 -5.30927734 20.20841797 -5.4375 18.6875 C-5.51871094 17.70136719 -5.59992187 16.71523438 -5.68359375 15.69921875 C-5.91812559 12.90624401 -5.91812559 12.90624401 -7 10 C-7.49628906 10.39832031 -7.99257813 10.79664063 -8.50390625 11.20703125 C-12.86325863 14.60682979 -16.83575375 17.03758643 -22 19 C-22.66 19.33 -23.32 19.66 -24 20 C-25.99960012 20.039992 -28.00047242 20.04346799 -30 20 C-27.22388843 18.14925896 -24.68646894 16.97499447 -21.625 15.6875 C-17.14879701 13.69350156 -14.33928096 11.62550504 -11 8 C-9 7 -7 6 -5 5 C-2.18643108 2.43802877 -2.18643108 2.43802877 0 0 Z " fill="#6A8F6C" transform="translate(611,679)"/>
<path d="M0 0 C0.84707755 2.37607916 1.14386964 3.59590713 0.28515625 6.0078125 C-7.68033945 19.80109898 -18.55625367 32.59351346 -34 38 C-34.99 37.67 -35.98 37.34 -37 37 C-35.04414675 35.99515796 -33.08523763 34.99626195 -31.125 34 C-30.03445313 33.443125 -28.94390625 32.88625 -27.8203125 32.3125 C-25 31 -25 31 -23 31 C-23 30.34 -23 29.68 -23 29 C-21.56015998 28.06242975 -20.11775902 27.12845953 -18.66015625 26.21875 C-16.85888584 24.89640561 -15.63240606 23.49967215 -14.25 21.75 C-13.13625 20.38875 -13.13625 20.38875 -12 19 C-11.34 19 -10.68 19 -10 19 C-9.7525 18.319375 -9.505 17.63875 -9.25 16.9375 C-7.75802092 13.43134917 -5.93164489 10.28379632 -4 7 C-3.34 7 -2.68 7 -2 7 C-1.855625 6.21625 -1.71125 5.4325 -1.5625 4.625 C-1 2 -1 2 0 0 Z " fill="#224F4E" transform="translate(737,819)"/>
<path d="M0 0 C1.66159519 3.32319037 0.04225333 6.60713279 -1 10 C-1.63512201 11.73312956 -2.28164921 13.46210793 -2.9375 15.1875 C-5.239532 21.326252 -6.65545838 27.59305548 -8 34 C-10.66248083 31.33751917 -10.71832705 29.73216655 -11 26 C-10.25 22.6875 -10.25 22.6875 -9 19 C-8.78085937 18.21625 -8.56171875 17.4325 -8.3359375 16.625 C-8.10132813 15.820625 -7.86671875 15.01625 -7.625 14.1875 C-7.41101563 13.43855469 -7.19703125 12.68960937 -6.9765625 11.91796875 C-5.73271665 9.4750555 -4.39988418 9.18787024 -2 8 C-1.25823993 4.47486472 -1.25823993 4.47486472 -1 1 C-0.67 0.67 -0.34 0.34 0 0 Z " fill="#CFCFCC" transform="translate(488,314)"/>
<path d="M0 0 C0.33 0 0.66 0 1 0 C1.07453648 5.55010083 1.12878399 11.09990586 1.16479492 16.65039062 C1.17981793 18.53585897 1.20024231 20.42129275 1.22631836 22.30664062 C1.26298863 25.0274309 1.27979146 27.74775641 1.29296875 30.46875 C1.30845261 31.30241089 1.32393646 32.13607178 1.33988953 32.99499512 C1.34149869 38.67784643 0.26047372 42.78046395 -2 48 C-2.38542969 48.9796875 -2.77085937 49.959375 -3.16796875 50.96875 C-3.67263672 52.22171875 -3.67263672 52.22171875 -4.1875 53.5 C-4.53167969 54.3559375 -4.87585938 55.211875 -5.23046875 56.09375 C-5.48441406 56.7228125 -5.73835937 57.351875 -6 58 C-6.99 57.67 -7.98 57.34 -9 57 C-8.67386719 56.27296875 -8.34773437 55.5459375 -8.01171875 54.796875 C-7.57472656 53.79140625 -7.13773438 52.7859375 -6.6875 51.75 C-6.25824219 50.77546875 -5.82898438 49.8009375 -5.38671875 48.796875 C-1.17482777 37.85237484 -0.4873021 27.31712034 -0.3125 15.75 C-0.27923931 14.21481628 -0.24474197 12.67965884 -0.20898438 11.14453125 C-0.12510038 7.42988088 -0.05782969 3.71515825 0 0 Z " fill="#29836E" transform="translate(634,606)"/>
<path d="M0 0 C0.33 0 0.66 0 1 0 C1 20.13 1 40.26 1 61 C-5.93 60.505 -5.93 60.505 -13 60 C-13 59.67 -13 59.34 -13 59 C-7.555 58.505 -7.555 58.505 -2 58 C-1.28396653 54.41983265 -0.87881593 51.84748529 -0.90234375 48.32080078 C-0.90564697 47.42281769 -0.9089502 46.52483459 -0.91235352 45.59963989 C-0.92065186 44.64121185 -0.9289502 43.68278381 -0.9375 42.6953125 C-0.94128662 41.69797089 -0.94507324 40.70062927 -0.94897461 39.67306519 C-0.96527934 35.41757141 -0.99339078 31.16217469 -1.02050781 26.90673828 C-1.03864325 23.79460091 -1.05070662 20.68247934 -1.0625 17.5703125 C-1.07494751 16.13874313 -1.07494751 16.13874313 -1.08764648 14.67825317 C-1.10594603 9.66858458 -0.86263666 4.93723641 0 0 Z " fill="#739F61" transform="translate(558,640)"/>
<path d="M0 0 C2.9719385 1.12451727 5.33440687 2.22293791 8 4 C8 4.66 8 5.32 8 6 C8.70125 6.20625 9.4025 6.4125 10.125 6.625 C13.80173359 8.3834378 16.47295079 10.80428141 19 14 C19 14.66 19 15.32 19 16 C19.66 16 20.32 16 21 16 C21.33 17.32 21.66 18.64 22 20 C22.66 20 23.32 20 24 20 C25.15879664 22.18144224 26.30187378 24.36903017 27.4375 26.5625 C27.92573242 27.47612305 27.92573242 27.47612305 28.42382812 28.40820312 C30.60371221 32.65560614 31.56519369 36.24162667 32 41 C30.17619822 38.26429733 28.82204493 35.52678817 27.43774414 32.5546875 C22.21223637 21.49400814 15.33044387 13.74008856 6.04296875 5.7890625 C3.93430719 3.94247169 1.96152028 2.00119147 0 0 Z " fill="#C9F4EE" transform="translate(709,441)"/>
<path d="M0 0 C0.33 0 0.66 0 1 0 C1.16662861 5.71023443 0.70595287 10.76336972 -0.625 16.3125 C-0.76550781 17.01439453 -0.90601563 17.71628906 -1.05078125 18.43945312 C-1.99439819 22.39886979 -2.64718811 23.77806994 -6.1484375 25.98046875 C-7.08945312 26.31691406 -8.03046875 26.65335938 -9 27 C-8.28346505 23.97045528 -7.3893869 21.03928525 -6.40625 18.0859375 C-6.09816406 17.16039062 -5.79007812 16.23484375 -5.47265625 15.28125 C-5.15167969 14.3221875 -4.83070313 13.363125 -4.5 12.375 C-4.01853516 10.92480469 -4.01853516 10.92480469 -3.52734375 9.4453125 C-3.21925781 8.52234375 -2.91117187 7.599375 -2.59375 6.6484375 C-2.31208984 5.80458496 -2.03042969 4.96073242 -1.74023438 4.09130859 C-1 2 -1 2 0 0 Z " fill="#B9BAB8" transform="translate(374,503)"/>
<path d="M0 0 C11.7827208 5.08062273 18.48795121 18.07612134 23.41796875 29.19921875 C26.42834589 36.89468796 26.42834589 36.89468796 25 41 C25 40.34 25 39.68 25 39 C24.34 39 23.68 39 23 39 C22.76216797 37.85724609 22.76216797 37.85724609 22.51953125 36.69140625 C21.12161051 30.50502774 19.4198783 25.34656044 16.140625 19.9140625 C14.82002268 17.69798327 13.86189901 15.42898811 13 13 C12.34 13 11.68 13 11 13 C11 12.34 11 11.68 11 11 C10.34 11 9.68 11 9 11 C7.59765625 9.57421875 7.59765625 9.57421875 6.0625 7.6875 C4.53045512 5.81848362 3.03019203 4.02977366 1.30859375 2.33203125 C0 1 0 1 0 0 Z " fill="#49C7B6" transform="translate(716,448)"/>
<path d="M0 0 C-4.78527803 4.7625271 -7.9018743 5.73836572 -14.5625 5.75 C-19.14906092 5.85360607 -23.49876508 6.04982877 -28 7 C-30.34260643 6.7397104 -32.67724823 6.40047444 -35 6 C-36.27875 5.855625 -37.5575 5.71125 -38.875 5.5625 C-39.90625 5.376875 -40.9375 5.19125 -42 5 C-42.33 4.34 -42.66 3.68 -43 3 C-41.82981323 3.0314209 -41.82981323 3.0314209 -40.63598633 3.06347656 C-37.02829395 3.14771737 -33.42080953 3.19899916 -29.8125 3.25 C-28.58595703 3.28351562 -27.35941406 3.31703125 -26.09570312 3.3515625 C-18.27430283 3.43411026 -11.88411818 2.43921823 -4.51831055 -0.23144531 C-2 -1 -2 -1 0 0 Z " fill="#8D9E9D" transform="translate(473,858)"/>
<path d="M0 0 C-3.51964833 2.34643222 -5.82569842 2.51299815 -10 3 C-12.33386739 3.32957332 -14.6672845 3.66237012 -17 4 C-16.84402344 5.12019531 -16.68804688 6.24039063 -16.52734375 7.39453125 C-16.33037066 8.86713959 -16.13377577 10.33979856 -15.9375 11.8125 C-15.83373047 12.55048828 -15.72996094 13.28847656 -15.62304688 14.04882812 C-15.17913434 17.43174779 -14.90685008 19.72055025 -16 23 C-16.03920815 24.99961564 -16.04443347 27.00049364 -16 29 C-16.66 29.33 -17.32 29.66 -18 30 C-18 20.43 -18 10.86 -18 1 C-14.3803125 0.4740625 -14.3803125 0.4740625 -10.6875 -0.0625 C-9.55380981 -0.2327771 -9.55380981 -0.2327771 -8.3972168 -0.40649414 C-5.16513063 -0.85622462 -3.13625796 -1.04541932 0 0 Z " fill="#AEC2BE" transform="translate(581,700)"/>
<path d="M0 0 C2.0625 0.4375 2.0625 0.4375 4 1 C3.01 1.66 2.02 2.32 1 3 C0.56027379 5.70649901 0.56027379 5.70649901 0.65942383 8.91845703 C0.65965042 10.15959259 0.65987701 11.40072815 0.66011047 12.67947388 C0.67543152 14.03892372 0.69107953 15.39836991 0.70703125 16.7578125 C0.71262573 18.1450047 0.71689653 19.53220283 0.71989441 20.91940308 C0.73135503 24.57249281 0.76083214 28.22522534 0.79400635 31.87817383 C0.82468133 35.60493131 0.83839421 39.33174645 0.85351562 43.05859375 C0.88570114 50.37255877 0.93691161 57.68622936 1 65 C0.34 65 -0.32 65 -1 65 C-1.02312684 56.67271053 -1.04091683 48.34543437 -1.05181217 40.01812077 C-1.05704026 36.15179882 -1.06413654 32.28549879 -1.07543945 28.41918945 C-1.086271 24.69096599 -1.0922774 20.96276366 -1.09487724 17.23452568 C-1.09673101 15.80910344 -1.10035071 14.38368241 -1.10573006 12.95826912 C-1.11294393 10.96836592 -1.11340808 8.97844166 -1.11352539 6.98852539 C-1.115746 5.85379288 -1.11796661 4.71906036 -1.12025452 3.54994202 C-1 1 -1 1 0 0 Z " fill="#38A98B" transform="translate(635,443)"/>
<path d="M0 0 C3.16840528 2.48946129 4.43314682 4.86472924 5.75 8.5625 C7.74792182 13.99233591 10.82674984 18.13246558 14.390625 22.65234375 C16 25 16 25 16 28 C14.66079162 26.88200014 13.32877444 25.75538103 12 24.625 C11.2575 23.99851562 10.515 23.37203125 9.75 22.7265625 C9.1725 22.15679688 8.595 21.58703125 8 21 C8 20.34 8 19.68 8 19 C7.34 19 6.68 19 6 19 C6 17.35 6 15.7 6 14 C5.34 14 4.68 14 4 14 C4 13.01 4 12.02 4 11 C3.34 11 2.68 11 2 11 C-0.32590854 7.36576791 -0.16265833 4.22911669 0 0 Z " fill="#4C7E78" transform="translate(379,813)"/>
<path d="M0 0 C1.6381875 5.27204173 0.69725038 10.58188112 0.25 16 C0.17523438 17.093125 0.10046875 18.18625 0.0234375 19.3125 C-0.10417969 20.8903125 -0.10417969 20.8903125 -0.234375 22.5 C-0.30881836 23.4590625 -0.38326172 24.418125 -0.45996094 25.40625 C-1.06238937 28.29964949 -2.06949459 29.79815926 -4 32 C-4.66 31.34 -5.32 30.68 -6 30 C-5.8984375 28.06640625 -5.8984375 28.06640625 -5.375 25.5625 C-5.1790625 24.59828125 -4.983125 23.6340625 -4.78125 22.640625 C-4.5234375 21.43921875 -4.265625 20.2378125 -4 19 C-3.65544616 17.3491259 -3.31175811 15.69807096 -2.96875 14.046875 C-1.99205256 9.36179317 -0.99912101 4.68034842 0 0 Z " fill="#A0A498" transform="translate(376,500)"/>
<path d="M0 0 C3.49078293 1.39631317 5.73580501 2.36451795 8.6875 4.375 C13.1965197 7.28042952 17.97962998 9.15851182 23 11 C23 11.66 23 12.32 23 13 C19.21760329 12.34309381 15.78158474 11.279869 12.1875 9.9375 C11.21167969 9.57527344 10.23585938 9.21304688 9.23046875 8.83984375 C8.49441406 8.56269531 7.75835938 8.28554688 7 8 C7 7.34 7 6.68 7 6 C6.01 5.67 5.02 5.34 4 5 C4 4.34 4 3.68 4 3 C3.34 3 2.68 3 2 3 C1.67 9.93 1.34 16.86 1 24 C0.67 24 0.34 24 0 24 C0 16.08 0 8.16 0 0 Z " fill="#708A69" transform="translate(514,684)"/>
<path d="M0 0 C0.66 0.33 1.32 0.66 2 1 C-2.37311675 7.92410153 -7.29525072 14.74362977 -13.5 20.125 C-16.91839619 24.05615562 -16.33301845 25.92146859 -16 31 C-16.99 32.485 -16.99 32.485 -18 34 C-18.70987695 29.48977172 -18.88161468 25.49623486 -18 21 C-15.61566859 17.79552623 -12.90305998 15.26764935 -9.9140625 12.65625 C-5.83168827 8.93505097 -2.9481206 4.63851056 0 0 Z " fill="#21634D" transform="translate(625,664)"/>
<path d="M0 0 C0.33 0 0.66 0 1 0 C2.7614906 6.05512394 3.19277083 11.67114157 3.1875 17.9375 C3.1884668 19.07433228 3.1884668 19.07433228 3.18945312 20.23413086 C3.1349956 25.7300088 3.1349956 25.7300088 2 28 C1.34 28 0.68 28 0 28 C0 18.76 0 9.52 0 0 Z " fill="#0F4F4D" transform="translate(444,834)"/>
<path d="M0 0 C2.96478785 3.38832897 3.96393958 6.68487782 5.125 11 C5.45757813 12.216875 5.79015625 13.43375 6.1328125 14.6875 C6.56207031 16.3271875 6.56207031 16.3271875 7 18 C7.18087158 18.61198242 7.36174316 19.22396484 7.5480957 19.85449219 C8.10408435 22.49416168 8.11200502 24.94305679 8.09765625 27.640625 C8.09443359 28.71054687 8.09121094 29.78046875 8.08789062 30.8828125 C8.07951172 31.99398438 8.07113281 33.10515625 8.0625 34.25 C8.05798828 35.37664062 8.05347656 36.50328125 8.04882812 37.6640625 C8.03705397 40.44276217 8.0206084 43.22135409 8 46 C7.67 46 7.34 46 7 46 C7 39.07 7 32.14 7 25 C6.34 25 5.68 25 5 25 C4.96132813 23.98292969 4.96132813 23.98292969 4.921875 22.9453125 C4.54454369 16.75364873 3.44824335 11.82592069 0.83984375 6.19140625 C0 4 0 4 0 0 Z " fill="#B6CC84" transform="translate(626,291)"/>
<path d="M0 0 C0.33 0.99 0.66 1.98 1 3 C-3.32463546 6.95395242 -3.32463546 6.95395242 -6.75 7.1875 C-7.86375 7.0946875 -7.86375 7.0946875 -9 7 C-9.33 7.33 -9.66 7.66 -10 8 C-11.66617115 8.04063832 -13.33388095 8.042721 -15 8 C-15.33 8.66 -15.66 9.32 -16 10 C-18.06640625 10.4140625 -18.06640625 10.4140625 -20.5625 10.625 C-21.80193359 10.73714844 -21.80193359 10.73714844 -23.06640625 10.8515625 C-24.02353516 10.92503906 -24.02353516 10.92503906 -25 11 C-22.8821574 8.8821574 -21.83366972 8.46724309 -19.04296875 7.59765625 C-18.25986328 7.34693359 -17.47675781 7.09621094 -16.66992188 6.83789062 C-15.02676266 6.32464577 -13.38353448 5.81162169 -11.74023438 5.29882812 C-7.47494673 3.93295796 -3.74162497 2.5424835 0 0 Z " fill="#A9B6B8" transform="translate(713,851)"/>
<path d="M0 0 C3.78161982 0.67305894 7.29708349 1.72096737 10.9375 2.9375 C17.91008359 5.13139072 24.74409296 6.17323998 32 7 C32 8.98 32 10.96 32 13 C31.34 12.67 30.68 12.34 30 12 C30 11.34 30 10.68 30 10 C25.7514228 8.36593185 21.87471892 7.7045868 17.390625 7.28515625 C13.52835705 6.82446089 9.77536286 5.91929639 6 5 C6 4.34 6 3.68 6 3 C4.02 2.34 2.04 1.68 0 1 C0 0.67 0 0.34 0 0 Z " fill="#8E9E88" transform="translate(527,694)"/>
<path d="M0 0 C1 3 1 3 0.06640625 5.34765625 C-4.97193797 14.44284907 -10.61335533 22.7100165 -19 29 C-19.33 28.34 -19.66 27.68 -20 27 C-19.34 27 -18.68 27 -18 27 C-17.67 26.01 -17.34 25.02 -17 24 C-16.34 24 -15.68 24 -15 24 C-14.67 23.01 -14.34 22.02 -14 21 C-13.34 21 -12.68 21 -12 21 C-11.9071875 19.9171875 -11.9071875 19.9171875 -11.8125 18.8125 C-10.92658303 15.74586433 -9.78580798 14.7543923 -7.4765625 12.66796875 C-4.22724684 8.99744551 -2.21386882 4.34405188 0 0 Z " fill="#2E6D68" transform="translate(508,818)"/>
<path d="M0 0 C0.33 0 0.66 0 1 0 C0.18302137 16.14237096 0.18302137 16.14237096 -3 23 C-5.06323242 24.13623047 -5.06323242 24.13623047 -7 25 C-6.02446469 21.20738944 -5.04395891 17.41608157 -4.0625 13.625 C-3.78470703 12.54476563 -3.50691406 11.46453125 -3.22070312 10.3515625 C-2.95322266 9.3203125 -2.68574219 8.2890625 -2.41015625 7.2265625 C-2.16402588 6.27346191 -1.91789551 5.32036133 -1.66430664 4.33837891 C-1 2 -1 2 0 0 Z " fill="#B7B8B7" transform="translate(485,326)"/>
<path d="M0 0 C0 0.33 0 0.66 0 1 C-0.70125 1.03738281 -1.4025 1.07476562 -2.125 1.11328125 C-9.32405408 1.61212875 -14.87848344 3.03509094 -21.3515625 6.12109375 C-22.14304687 6.49363281 -22.93453125 6.86617188 -23.75 7.25 C-24.46671875 7.60578125 -25.1834375 7.9615625 -25.921875 8.328125 C-28.36168072 9.11693437 -29.61410834 8.83828626 -32 8 C-20.78228084 2.14247177 -12.70231956 -0.34382218 0 0 Z " fill="#44C5B4" transform="translate(669,434)"/>
<path d="M0 0 C9.91197643 4.51545593 18.0508709 14.47402142 23 24 C23 24.66 23 25.32 23 26 C22.34 26 21.68 26 21 26 C20.74347656 25.46632813 20.48695313 24.93265625 20.22265625 24.3828125 C15.33111722 14.8632517 8.16260057 7.77322175 0 1 C0 0.67 0 0.34 0 0 Z " fill="#B4CA80" transform="translate(602,263)"/>
<path d="M0 0 C0.8125 1.6875 0.8125 1.6875 1 4 C-2.48810553 8.14212532 -6.85337562 11.52257148 -11 15 C-11 12.25348924 -10.96916521 10.53436702 -10 8 C-7.96875 6.11328125 -7.96875 6.11328125 -5.5 4.3125 C-4.6853125 3.71050781 -3.870625 3.10851562 -3.03125 2.48828125 C-2.3609375 1.99714844 -1.690625 1.50601563 -1 1 C-0.67 0.67 -0.34 0.34 0 0 Z " fill="#C4D2D1" transform="translate(494,842)"/>
<path d="M0 0 C8.92885532 1.87881725 19.80543479 5.02769249 25.875 12.22265625 C26.431875 13.10244141 26.431875 13.10244141 27 14 C22.81540755 11.96185732 18.79833658 9.64050022 14.75390625 7.33984375 C12.11610401 6.05648748 9.88779022 5.42452089 7 5 C7 4.34 7 3.68 7 3 C4.69 2.67 2.38 2.34 0 2 C0 1.34 0 0.68 0 0 Z " fill="#49C8B7" transform="translate(689,434)"/>
<path d="M0 0 C0.66 0.66 1.32 1.32 2 2 C-1.63 5.96 -5.26 9.92 -9 14 C-9.33 13.01 -9.66 12.02 -10 11 C-7.39587371 6.20840762 -4.23679495 3.27388701 0 0 Z " fill="#CFD7D8" transform="translate(722,844)"/>
<path d="M0 0 C0.99 0.33 1.98 0.66 3 1 C-1.62 5.62 -6.24 10.24 -11 15 C-11.33 14.01 -11.66 13.02 -12 12 C-9.10887933 7.25271236 -4.49229603 3.19452162 0 0 Z " fill="#ACC972" transform="translate(404,446)"/>
<path d="M0 0 C0.33 0 0.66 0 1 0 C1.64668107 7.88950907 -0.35845663 13.04205107 -4 20 C-4.99 19.67 -5.98 19.34 -7 19 C-6.66226563 18.21496094 -6.32453125 17.42992187 -5.9765625 16.62109375 C-3.64741682 11.1348113 -1.44653232 5.78612928 0 0 Z " fill="#277659" transform="translate(632,644)"/>
<path d="M0 0 C1.54248331 3.08496663 0.2507412 5.1479722 -0.75 8.375 C-1.09546875 9.51710938 -1.4409375 10.65921875 -1.796875 11.8359375 C-2.89461765 14.7228581 -4.00617217 16.67386753 -6 19 C-7.11435288 16.19723367 -7.00643141 15.02021689 -6.07421875 12.08984375 C-5.38779297 10.52943359 -5.38779297 10.52943359 -4.6875 8.9375 C-4.23761719 7.89464844 -3.78773438 6.85179687 -3.32421875 5.77734375 C-2 3 -2 3 0 0 Z " fill="#CFCFCD" transform="translate(370,511)"/>
<path d="M0 0 C0.66 0.33 1.32 0.66 2 1 C-2.1832367 4.77511605 -5.74597851 6.97922251 -11 9 C-11.99 9.495 -11.99 9.495 -13 10 C-14.99960012 10.039992 -17.00047242 10.04346799 -19 10 C-15.44280407 7.62853605 -11.74664983 5.74233453 -7.9375 3.8125 C-7.20466797 3.43158203 -6.47183594 3.05066406 -5.71679688 2.65820312 C-3.84163066 1.70942757 -1.9230669 0.84748868 0 0 Z " fill="#93A08F" transform="translate(600,689)"/>
<path d="M0 0 C-4.34565662 2.89710442 -8.7518722 2.85908235 -13.875 3.4375 C-15.421875 3.7159375 -15.421875 3.7159375 -17 4 C-17.33 4.66 -17.66 5.32 -18 6 C-18 4.35 -18 2.7 -18 1 C-15.56348622 0.63737003 -13.12623023 0.28461036 -10.6875 -0.0625 C-9.99720703 -0.16626953 -9.30691406 -0.27003906 -8.59570312 -0.37695312 C-5.30415164 -0.83808836 -3.19783876 -1.06594625 0 0 Z " fill="#97A597" transform="translate(581,700)"/>
<path d="M0 0 C2.7133583 3.25602996 4.21435853 6.56153128 5.75 10.5 C6.19859375 11.6240625 6.6471875 12.748125 7.109375 13.90625 C7.97409572 16.91001672 8.14236473 18.15801946 7 21 C7 20.34 7 19.68 7 19 C6.34 19 5.68 19 5 19 C4.80664062 18.18015625 4.61328125 17.3603125 4.4140625 16.515625 C4.15367187 15.43796875 3.89328125 14.3603125 3.625 13.25 C3.36976563 12.18265625 3.11453125 11.1153125 2.8515625 10.015625 C2.12199766 7.07204412 2.12199766 7.07204412 0.8984375 4.796875 C0 3 0 3 0 0 Z " fill="#57C9B9" transform="translate(734,468)"/>
<path d="M0 0 C0.33 0 0.66 0 1 0 C1.28529189 3.23330805 1.06093235 4.88078453 -0.4375 7.8125 C-1.84830096 10.69053395 -2.23598092 12.12038475 -2.5 15.1875 C-3.01592226 19.12140727 -3.20717426 19.60084384 -6 22 C-5.59200675 13.97613274 -3.08963187 7.37635358 0 0 Z " fill="#B5CD80" transform="translate(496,289)"/>
<path d="M0 0 C0.86688859 2.89910284 1.0458562 5.11452831 0.66015625 8.109375 C0.56669922 8.86347656 0.47324219 9.61757813 0.37695312 10.39453125 C0.22129883 11.56048828 0.22129883 11.56048828 0.0625 12.75 C-0.03740234 13.54277344 -0.13730469 14.33554687 -0.24023438 15.15234375 C-0.48692871 17.10240371 -0.7425878 19.05132586 -1 21 C-1.99 20.34 -2.98 19.68 -4 19 C-2.89309248 12.59406714 -1.66054831 6.28636144 0 0 Z " fill="#A7A8A6" transform="translate(374,511)"/>
<path d="M0 0 C1.4754325 2.95086501 0.49712104 5.0061731 -0.32421875 8.1015625 C-1.12362551 10.3472948 -2.17532384 11.49265883 -4 13 C-4.33 13.99 -4.66 14.98 -5 16 C-5.66 16 -6.32 16 -7 16 C-6.75 13.125 -6.75 13.125 -6 10 C-5.34 9.690625 -4.68 9.38125 -4 9.0625 C-3.34 8.711875 -2.68 8.36125 -2 8 C-1.25823993 4.47486472 -1.25823993 4.47486472 -1 1 C-0.67 0.67 -0.34 0.34 0 0 Z " fill="#D7D7D1" transform="translate(488,314)"/>
<path d="M0 0 C0.33 0.66 0.66 1.32 1 2 C1.66 2 2.32 2 3 2 C3.95261487 6.76307437 4.08333357 11.1666528 4 16 C0.42530375 12.42530375 0.03082717 7.97105579 -0.125 3.0625 C-0.08375 2.051875 -0.0425 1.04125 0 0 Z " fill="#678889" transform="translate(607,804)"/>
<path d="M0 0 C0.66 0 1.32 0 2 0 C2 2.64 2 5.28 2 8 C-4.93 7.505 -4.93 7.505 -12 7 C-12 6.67 -12 6.34 -12 6 C-6.555 5.505 -6.555 5.505 -1 5 C-0.67 3.35 -0.34 1.7 0 0 Z " fill="#678C57" transform="translate(557,693)"/>
<path d="M0 0 C0.33 0.99 0.66 1.98 1 3 C-3.455 5.97 -3.455 5.97 -8 9 C-8 8.01 -8 7.02 -8 6 C-5.45600033 3.67721769 -3.09376059 1.54688029 0 0 Z " fill="#B4BDBC" transform="translate(478,854)"/>
<path d="M0 0 C-5.16923077 4.92307692 -5.16923077 4.92307692 -9.375 5.3125 C-10.674375 5.1578125 -10.674375 5.1578125 -12 5 C-8.98541648 1.5216344 -4.71726343 -2.35863172 0 0 Z " fill="#9FACAC" transform="translate(473,858)"/>
<path d="M0 0 C0.8125 1.6875 0.8125 1.6875 1 4 C-1.1613627 6.51185394 -3.01962439 8.50981219 -6 10 C-4.79157144 5.56909529 -3.48331435 3.01887244 0 0 Z " fill="#D2E0DF" transform="translate(494,842)"/>
<path d="M0 0 C0.66 0.33 1.32 0.66 2 1 C0.60922699 1.82113177 -0.78788893 2.63152495 -2.1875 3.4375 C-2.96480469 3.88996094 -3.74210938 4.34242188 -4.54296875 4.80859375 C-7.04931977 6.02391499 -9.25790365 6.57626575 -12 7 C-8.44008172 4.03340143 -4.34777457 1.618652 0 0 Z " fill="#1F4D4C" transform="translate(712,850)"/>
<path d="M0 0 C2.64 0 5.28 0 8 0 C8 1.98 8 3.96 8 6 C7.34 5.67 6.68 5.34 6 5 C6 4.34 6 3.68 6 3 C4.02 2.34 2.04 1.68 0 1 C0 0.67 0 0.34 0 0 Z " fill="#97A79A" transform="translate(551,701)"/>
<path d="M0 0 C0.99 0.33 1.98 0.66 3 1 C2.34 1.66 1.68 2.32 1 3 C1 5.0095466 1.00501725 7.02138222 1.125 9.02734375 C1 11 1 11 -1 14 C-1.02685938 11.85423363 -1.04633088 9.70837355 -1.0625 7.5625 C-1.07410156 6.36753906 -1.08570313 5.17257812 -1.09765625 3.94140625 C-1 1 -1 1 0 0 Z " fill="#1C554F" transform="translate(608,684)"/>
<path d="M0 0 C1.72985242 0.11512153 3.45888751 0.24255677 5.1875 0.375 C6.15042969 0.44460938 7.11335938 0.51421875 8.10546875 0.5859375 C11.01508938 1.00215853 13.32890774 1.79874096 16 3 C12.66355017 4.09404518 10.2934212 3.89669485 6.875 3.1875 C6.00617188 3.01605469 5.13734375 2.84460938 4.2421875 2.66796875 C2 2 2 2 0 0 Z " fill="#9CB86C" transform="translate(455,433)"/>
<path d="M0 0 C0.88336837 2.4667645 1.1312406 3.63859372 0.22265625 6.140625 C-0.16019531 6.83671875 -0.54304687 7.5328125 -0.9375 8.25 C-1.31777344 8.95640625 -1.69804688 9.6628125 -2.08984375 10.390625 C-2.39019531 10.92171875 -2.69054687 11.4528125 -3 12 C-3.66 11.67 -4.32 11.34 -5 11 C-4.67 9.68 -4.34 8.36 -4 7 C-3.34 7 -2.68 7 -2 7 C-1.855625 6.21625 -1.71125 5.4325 -1.5625 4.625 C-1 2 -1 2 0 0 Z " fill="#2C5756" transform="translate(737,819)"/>
<path d="M0 0 C3.7952131 1.49097658 5.61042731 3.75700849 8 7 C5.125 6.3125 5.125 6.3125 2 5 C0.625 2.375 0.625 2.375 0 0 Z " fill="#4B7449" transform="translate(506,676)"/>
<path d="M0 0 C2.45823172 3.68734758 3.01242616 6.69699971 4 11 C3.34 11 2.68 11 2 11 C-0.32590854 7.36576791 -0.16265833 4.22911669 0 0 Z " fill="#8CA5A1" transform="translate(379,813)"/>
<path d="M0 0 C0.33 0 0.66 0 1 0 C1 2.64 1 5.28 1 8 C-0.98 8.99 -0.98 8.99 -3 10 C-2.21302675 6.58978257 -1.12880057 3.31114834 0 0 Z " fill="#C2C3C2" transform="translate(368,520)"/>
<path d="M0 0 C3.375 0.3125 3.375 0.3125 7 1 C7.66 1.99 8.32 2.98 9 4 C5.17902761 3.46930939 2.93828597 2.50298434 0 0 Z " fill="#647F80" transform="translate(642,855)"/>
</svg>
